G04 #@! TF.GenerationSoftware,KiCad,Pcbnew,5.0.0*
G04 #@! TF.CreationDate,2018-09-20T15:59:47+02:00*
G04 #@! TF.ProjectId,adri,616472692E6B696361645F7063620000,rev?*
G04 #@! TF.SameCoordinates,Original*
G04 #@! TF.FileFunction,Copper,L2,Bot,Signal*
G04 #@! TF.FilePolarity,Positive*
%FSLAX46Y46*%
G04 Gerber Fmt 4.6, Leading zero omitted, Abs format (unit mm)*
G04 Created by KiCad (PCBNEW 5.0.0) date Thu Sep 20 15:59:47 2018*
%MOMM*%
%LPD*%
G01*
G04 APERTURE LIST*
G04 #@! TA.AperFunction,SMDPad,CuDef*
%ADD10R,3.300000X4.200000*%
G04 #@! TD*
G04 #@! TA.AperFunction,ComponentPad*
%ADD11C,1.600000*%
G04 #@! TD*
G04 #@! TA.AperFunction,ComponentPad*
%ADD12R,1.600000X1.600000*%
G04 #@! TD*
G04 #@! TA.AperFunction,ComponentPad*
%ADD13R,1.524000X1.524000*%
G04 #@! TD*
G04 #@! TA.AperFunction,ComponentPad*
%ADD14C,1.524000*%
G04 #@! TD*
G04 #@! TA.AperFunction,SMDPad,CuDef*
%ADD15R,1.200000X0.900000*%
G04 #@! TD*
G04 #@! TA.AperFunction,SMDPad,CuDef*
%ADD16R,1.550000X0.600000*%
G04 #@! TD*
G04 #@! TA.AperFunction,SMDPad,CuDef*
%ADD17R,1.524000X1.524000*%
G04 #@! TD*
G04 #@! TA.AperFunction,BGAPad,CuDef*
%ADD18C,1.524000*%
G04 #@! TD*
G04 #@! TA.AperFunction,SMDPad,CuDef*
%ADD19R,2.500000X1.000000*%
G04 #@! TD*
G04 #@! TA.AperFunction,ViaPad*
%ADD20C,4.000000*%
G04 #@! TD*
G04 #@! TA.AperFunction,ViaPad*
%ADD21C,0.800000*%
G04 #@! TD*
G04 #@! TA.AperFunction,Conductor*
%ADD22C,0.250000*%
G04 #@! TD*
G04 #@! TA.AperFunction,Conductor*
%ADD23C,0.350000*%
G04 #@! TD*
G04 APERTURE END LIST*
D10*
G04 #@! TO.P,Batt1,1*
G04 #@! TO.N,+BATT*
X124500000Y-135000000D03*
G04 #@! TO.P,Batt1,2*
G04 #@! TO.N,GND*
X153500000Y-135000000D03*
G04 #@! TD*
D11*
G04 #@! TO.P,BZ1,2*
G04 #@! TO.N,GND*
X103000000Y-110500000D03*
D12*
G04 #@! TO.P,BZ1,1*
G04 #@! TO.N,Net-(BZ1-Pad1)*
X103000000Y-117000000D03*
G04 #@! TD*
D13*
G04 #@! TO.P,J1,1*
G04 #@! TO.N,Net-(J1-Pad1)*
X175460000Y-115230000D03*
D14*
G04 #@! TO.P,J1,2*
G04 #@! TO.N,+BATT*
X175460000Y-117770000D03*
G04 #@! TO.P,J1,3*
G04 #@! TO.N,Net-(D1-Pad4)*
X178000000Y-115230000D03*
G04 #@! TO.P,J1,4*
G04 #@! TO.N,Net-(J1-Pad4)*
X178000000Y-117770000D03*
G04 #@! TO.P,J1,5*
G04 #@! TO.N,Net-(J1-Pad5)*
X180540000Y-115230000D03*
G04 #@! TO.P,J1,6*
G04 #@! TO.N,GND*
X180540000Y-117770000D03*
G04 #@! TD*
D15*
G04 #@! TO.P,R1,2*
G04 #@! TO.N,Net-(J1-Pad4)*
X131300000Y-117080000D03*
G04 #@! TO.P,R1,1*
G04 #@! TO.N,Net-(BZ1-Pad1)*
X129100000Y-117080000D03*
G04 #@! TD*
D16*
G04 #@! TO.P,U1,8*
G04 #@! TO.N,+BATT*
X137300000Y-111095000D03*
G04 #@! TO.P,U1,7*
G04 #@! TO.N,Net-(D1-Pad4)*
X137300000Y-112365000D03*
G04 #@! TO.P,U1,6*
G04 #@! TO.N,Net-(J1-Pad1)*
X137300000Y-113635000D03*
G04 #@! TO.P,U1,5*
G04 #@! TO.N,Net-(J1-Pad4)*
X137300000Y-114905000D03*
G04 #@! TO.P,U1,4*
G04 #@! TO.N,GND*
X142700000Y-114905000D03*
G04 #@! TO.P,U1,3*
G04 #@! TO.N,Net-(J2-Pad3)*
X142700000Y-113635000D03*
G04 #@! TO.P,U1,2*
G04 #@! TO.N,Net-(J2-Pad2)*
X142700000Y-112365000D03*
G04 #@! TO.P,U1,1*
G04 #@! TO.N,Net-(J1-Pad5)*
X142700000Y-111095000D03*
G04 #@! TD*
D17*
G04 #@! TO.P,J2,1*
G04 #@! TO.N,Net-(J1-Pad5)*
X145960000Y-109420000D03*
D18*
G04 #@! TO.P,J2,2*
G04 #@! TO.N,Net-(J2-Pad2)*
X145960000Y-111960000D03*
G04 #@! TO.P,J2,3*
G04 #@! TO.N,Net-(J2-Pad3)*
X145960000Y-114500000D03*
G04 #@! TO.P,J2,4*
G04 #@! TO.N,GND*
X145960000Y-117040000D03*
G04 #@! TD*
G04 #@! TO.P,J3,4*
G04 #@! TO.N,+BATT*
X134040000Y-109460000D03*
G04 #@! TO.P,J3,3*
G04 #@! TO.N,Net-(D1-Pad4)*
X134040000Y-112000000D03*
G04 #@! TO.P,J3,2*
G04 #@! TO.N,Net-(J1-Pad1)*
X134040000Y-114540000D03*
D17*
G04 #@! TO.P,J3,1*
G04 #@! TO.N,Net-(J1-Pad4)*
X134040000Y-117080000D03*
G04 #@! TD*
D19*
G04 #@! TO.P,SW4,1*
G04 #@! TO.N,GND*
X165000000Y-114000000D03*
X161000000Y-114000000D03*
G04 #@! TO.P,SW4,2*
G04 #@! TO.N,Net-(J1-Pad1)*
X165000000Y-117000000D03*
X161000000Y-117000000D03*
G04 #@! TD*
D20*
G04 #@! TO.N,GND*
X185000000Y-145000000D03*
D21*
G04 #@! TO.N,+BATT*
X179600000Y-78500000D03*
G04 #@! TO.N,GND*
X176000000Y-111500000D03*
D20*
X95000000Y-145000000D03*
X95000000Y-55000000D03*
X185000000Y-55000000D03*
D21*
G04 #@! TO.N,Net-(D1-Pad4)*
X179600000Y-83500000D03*
G04 #@! TO.N,Net-(J1-Pad5)*
X180000000Y-88500000D03*
X176000000Y-88500000D03*
G04 #@! TO.N,Net-(J2-Pad2)*
X176000000Y-98500000D03*
G04 #@! TO.N,Net-(J2-Pad3)*
X176000000Y-108500000D03*
G04 #@! TD*
D22*
G04 #@! TO.N,+BATT*
X137300000Y-110545000D02*
X137300000Y-111095000D01*
X134040000Y-109460000D02*
X136215000Y-109460000D01*
X136215000Y-109460000D02*
X137300000Y-110545000D01*
D23*
X133278001Y-110221999D02*
X134040000Y-109460000D01*
X130324999Y-113175001D02*
X133278001Y-110221999D01*
X124500000Y-135000000D02*
X124500000Y-132550000D01*
X124500000Y-132550000D02*
X130324999Y-126725001D01*
X180375001Y-79275001D02*
X179600000Y-78500000D01*
X176597001Y-118907001D02*
X178545761Y-118907001D01*
X175460000Y-117770000D02*
X176597001Y-118907001D01*
X179137001Y-85110001D02*
X180375001Y-83872001D01*
X180375001Y-83872001D02*
X180375001Y-79275001D01*
X178545761Y-118907001D02*
X179137001Y-118315761D01*
X179137001Y-118315761D02*
X179137001Y-85110001D01*
X130352030Y-119527031D02*
X130324999Y-119500000D01*
X173702969Y-119527031D02*
X130352030Y-119527031D01*
X175460000Y-117770000D02*
X173702969Y-119527031D01*
X130324999Y-126725001D02*
X130324999Y-119500000D01*
X130324999Y-119500000D02*
X130324999Y-113175001D01*
D22*
G04 #@! TO.N,GND*
X165000000Y-114000000D02*
X173500000Y-114000000D01*
X173500000Y-114000000D02*
X176000000Y-111500000D01*
G04 #@! TO.N,Net-(BZ1-Pad1)*
X103080000Y-117080000D02*
X103000000Y-117000000D01*
X129100000Y-117080000D02*
X103080000Y-117080000D01*
G04 #@! TO.N,Net-(D1-Pad4)*
X136935000Y-112000000D02*
X137300000Y-112365000D01*
X134040000Y-112000000D02*
X136935000Y-112000000D01*
X178000000Y-115230000D02*
X178000000Y-85100000D01*
X178000000Y-85100000D02*
X179600000Y-83500000D01*
X137300000Y-112365000D02*
X137775000Y-112365000D01*
X137775000Y-112365000D02*
X143537001Y-118127001D01*
X143537001Y-118127001D02*
X146481761Y-118127001D01*
X178000000Y-114152370D02*
X178000000Y-115230000D01*
X178000000Y-112426998D02*
X178000000Y-114152370D01*
X176348001Y-110774999D02*
X178000000Y-112426998D01*
X146481761Y-118127001D02*
X153833763Y-110774999D01*
X153833763Y-110774999D02*
X176348001Y-110774999D01*
G04 #@! TO.N,Net-(J1-Pad1)*
X136275000Y-113635000D02*
X137300000Y-113635000D01*
X134040000Y-114540000D02*
X134945000Y-113635000D01*
X134945000Y-113635000D02*
X136275000Y-113635000D01*
X137635000Y-113635000D02*
X137300000Y-113635000D01*
X174448000Y-115230000D02*
X171100989Y-118577011D01*
X175460000Y-115230000D02*
X174448000Y-115230000D01*
X141077011Y-118577011D02*
X138400001Y-115900001D01*
X138400001Y-114400001D02*
X137635000Y-113635000D01*
X138400001Y-115900001D02*
X138400001Y-114400001D01*
X165750000Y-117000000D02*
X167250000Y-118500000D01*
X165000000Y-117000000D02*
X165750000Y-117000000D01*
X167250000Y-118500000D02*
X167250000Y-118577011D01*
X171100989Y-118577011D02*
X167250000Y-118577011D01*
X167250000Y-118577011D02*
X141077011Y-118577011D01*
X161000000Y-117000000D02*
X165000000Y-117000000D01*
G04 #@! TO.N,Net-(J1-Pad4)*
X137300000Y-115455000D02*
X137300000Y-114905000D01*
X134040000Y-117080000D02*
X135675000Y-117080000D01*
X135675000Y-117080000D02*
X137300000Y-115455000D01*
X135052000Y-117080000D02*
X134040000Y-117080000D01*
D23*
X131300000Y-117080000D02*
X134040000Y-117080000D01*
D22*
X135580000Y-117080000D02*
X134040000Y-117080000D01*
X137527021Y-119027021D02*
X135580000Y-117080000D01*
X177238001Y-117008001D02*
X178000000Y-117770000D01*
X176730000Y-116500000D02*
X177238001Y-117008001D01*
X172500000Y-119027021D02*
X175027021Y-116500000D01*
X175027021Y-116500000D02*
X176730000Y-116500000D01*
X137527021Y-119027021D02*
X172500000Y-119027021D01*
G04 #@! TO.N,Net-(J1-Pad5)*
X143725000Y-111095000D02*
X142700000Y-111095000D01*
X145297000Y-111095000D02*
X143725000Y-111095000D01*
X145960000Y-109420000D02*
X145960000Y-110432000D01*
X145960000Y-110432000D02*
X145297000Y-111095000D01*
X145960000Y-109420000D02*
X146972000Y-109420000D01*
X180540000Y-89040000D02*
X180000000Y-88500000D01*
X180540000Y-115230000D02*
X180540000Y-89040000D01*
X174500000Y-88500000D02*
X176000000Y-88500000D01*
X146972000Y-109420000D02*
X167892000Y-88500000D01*
X167892000Y-88500000D02*
X174500000Y-88500000D01*
G04 #@! TO.N,Net-(J2-Pad2)*
X143105000Y-111960000D02*
X142700000Y-112365000D01*
X145960000Y-111960000D02*
X143105000Y-111960000D01*
X159420000Y-98500000D02*
X176000000Y-98500000D01*
X145960000Y-111960000D02*
X159420000Y-98500000D01*
G04 #@! TO.N,Net-(J2-Pad3)*
X145095000Y-113635000D02*
X142700000Y-113635000D01*
X145960000Y-114500000D02*
X145095000Y-113635000D01*
X151960000Y-108500000D02*
X176000000Y-108500000D01*
X145960000Y-114500000D02*
X151960000Y-108500000D01*
G04 #@! TD*
G04 #@! TO.N,GND*
G36*
X189300000Y-149280058D02*
X185858494Y-148981991D01*
X185854618Y-148981686D01*
X185850667Y-148981357D01*
X177200957Y-148329884D01*
X177189987Y-148329144D01*
X168531110Y-147813614D01*
X168520129Y-147813047D01*
X159854224Y-147433589D01*
X159843236Y-147433194D01*
X151172439Y-147189901D01*
X151161445Y-147189679D01*
X142487896Y-147082611D01*
X142476901Y-147082562D01*
X133802741Y-147111745D01*
X133791746Y-147111868D01*
X133791744Y-147111868D01*
X125119114Y-147277296D01*
X125108123Y-147277592D01*
X116439162Y-147579223D01*
X116439158Y-147579223D01*
X116428173Y-147579692D01*
X107765017Y-148017451D01*
X107754040Y-148018092D01*
X99098828Y-148591873D01*
X99087863Y-148592686D01*
X99087737Y-148592697D01*
X90700000Y-149281228D01*
X90700000Y-116200000D01*
X101562756Y-116200000D01*
X101562756Y-117800000D01*
X101611263Y-118043863D01*
X101749400Y-118250600D01*
X101956137Y-118388737D01*
X102200000Y-118437244D01*
X103800000Y-118437244D01*
X104043863Y-118388737D01*
X104250600Y-118250600D01*
X104388737Y-118043863D01*
X104431277Y-117830000D01*
X127948772Y-117830000D01*
X128049400Y-117980600D01*
X128256137Y-118118737D01*
X128500000Y-118167244D01*
X129524999Y-118167244D01*
X129524999Y-119421216D01*
X129509328Y-119500000D01*
X129524999Y-119578784D01*
X129524999Y-119578788D01*
X129525000Y-119578793D01*
X129524999Y-126393631D01*
X123990026Y-131928604D01*
X123923234Y-131973233D01*
X123878605Y-132040025D01*
X123878603Y-132040027D01*
X123746418Y-132237856D01*
X123741465Y-132262756D01*
X122850000Y-132262756D01*
X122606137Y-132311263D01*
X122399400Y-132449400D01*
X122261263Y-132656137D01*
X122212756Y-132900000D01*
X122212756Y-137100000D01*
X122261263Y-137343863D01*
X122399400Y-137550600D01*
X122606137Y-137688737D01*
X122850000Y-137737244D01*
X126150000Y-137737244D01*
X126393863Y-137688737D01*
X126600600Y-137550600D01*
X126738737Y-137343863D01*
X126787244Y-137100000D01*
X126787244Y-135221250D01*
X151305000Y-135221250D01*
X151305000Y-137208407D01*
X151387971Y-137408718D01*
X151541283Y-137562029D01*
X151741593Y-137645000D01*
X153278750Y-137645000D01*
X153415000Y-137508750D01*
X153415000Y-135085000D01*
X153585000Y-135085000D01*
X153585000Y-137508750D01*
X153721250Y-137645000D01*
X155258407Y-137645000D01*
X155458717Y-137562029D01*
X155612029Y-137408718D01*
X155695000Y-137208407D01*
X155695000Y-135221250D01*
X155558750Y-135085000D01*
X153585000Y-135085000D01*
X153415000Y-135085000D01*
X151441250Y-135085000D01*
X151305000Y-135221250D01*
X126787244Y-135221250D01*
X126787244Y-132900000D01*
X126765681Y-132791593D01*
X151305000Y-132791593D01*
X151305000Y-134778750D01*
X151441250Y-134915000D01*
X153415000Y-134915000D01*
X153415000Y-132491250D01*
X153585000Y-132491250D01*
X153585000Y-134915000D01*
X155558750Y-134915000D01*
X155695000Y-134778750D01*
X155695000Y-132791593D01*
X155612029Y-132591282D01*
X155458717Y-132437971D01*
X155258407Y-132355000D01*
X153721250Y-132355000D01*
X153585000Y-132491250D01*
X153415000Y-132491250D01*
X153278750Y-132355000D01*
X151741593Y-132355000D01*
X151541283Y-132437971D01*
X151387971Y-132591282D01*
X151305000Y-132791593D01*
X126765681Y-132791593D01*
X126738737Y-132656137D01*
X126600600Y-132449400D01*
X126393863Y-132311263D01*
X126150000Y-132262756D01*
X125918614Y-132262756D01*
X130834971Y-127346399D01*
X130901766Y-127301768D01*
X131000733Y-127153654D01*
X131078582Y-127037146D01*
X131140671Y-126725001D01*
X131124999Y-126646212D01*
X131124999Y-120327031D01*
X173624185Y-120327031D01*
X173702969Y-120342702D01*
X173781753Y-120327031D01*
X173781758Y-120327031D01*
X174015113Y-120280614D01*
X174279736Y-120103798D01*
X174324367Y-120037003D01*
X175204371Y-119157000D01*
X175715629Y-119157000D01*
X175975604Y-119416975D01*
X176020234Y-119483768D01*
X176284857Y-119660584D01*
X176518212Y-119707001D01*
X176518216Y-119707001D01*
X176597000Y-119722672D01*
X176675784Y-119707001D01*
X178466977Y-119707001D01*
X178545761Y-119722672D01*
X178624545Y-119707001D01*
X178624550Y-119707001D01*
X178857905Y-119660584D01*
X179122528Y-119483768D01*
X179167159Y-119416973D01*
X179646973Y-118937159D01*
X179713768Y-118892528D01*
X179789746Y-118778820D01*
X179827075Y-118895867D01*
X180312194Y-119082990D01*
X180831994Y-119070222D01*
X181252925Y-118895867D01*
X181323710Y-118673918D01*
X180540000Y-117890208D01*
X180525858Y-117904351D01*
X180405650Y-117784143D01*
X180419792Y-117770000D01*
X180660208Y-117770000D01*
X181443918Y-118553710D01*
X181665867Y-118482925D01*
X181852990Y-117997806D01*
X181840222Y-117478006D01*
X181665867Y-117057075D01*
X181443918Y-116986290D01*
X180660208Y-117770000D01*
X180419792Y-117770000D01*
X180405650Y-117755858D01*
X180525858Y-117635650D01*
X180540000Y-117649792D01*
X181323710Y-116866082D01*
X181252925Y-116644133D01*
X180992707Y-116543760D01*
X181325672Y-116405842D01*
X181715842Y-116015672D01*
X181927000Y-115505891D01*
X181927000Y-114954109D01*
X181715842Y-114444328D01*
X181325672Y-114054158D01*
X181290000Y-114039382D01*
X181290000Y-89113864D01*
X181304693Y-89039999D01*
X181289197Y-88962099D01*
X181246484Y-88747365D01*
X181080720Y-88499280D01*
X181025000Y-88462049D01*
X181025000Y-88296115D01*
X180868953Y-87919384D01*
X180580616Y-87631047D01*
X180203885Y-87475000D01*
X179937001Y-87475000D01*
X179937001Y-85441371D01*
X180884976Y-84493397D01*
X180951768Y-84448768D01*
X181013475Y-84356418D01*
X181128583Y-84184146D01*
X181128584Y-84184145D01*
X181175001Y-83950790D01*
X181175001Y-83950786D01*
X181190672Y-83872002D01*
X181175001Y-83793218D01*
X181175001Y-79353785D01*
X181190672Y-79275001D01*
X181175001Y-79196217D01*
X181175001Y-79196212D01*
X181128584Y-78962857D01*
X181046387Y-78839841D01*
X180996398Y-78765027D01*
X180996397Y-78765026D01*
X180951768Y-78698234D01*
X180884975Y-78653604D01*
X180625000Y-78393629D01*
X180625000Y-78296115D01*
X180468953Y-77919384D01*
X180180616Y-77631047D01*
X179803885Y-77475000D01*
X179396115Y-77475000D01*
X179019384Y-77631047D01*
X178731047Y-77919384D01*
X178575000Y-78296115D01*
X178575000Y-78703885D01*
X178731047Y-79080616D01*
X179019384Y-79368953D01*
X179396115Y-79525000D01*
X179493629Y-79525000D01*
X179575002Y-79606373D01*
X179575001Y-82475000D01*
X179396115Y-82475000D01*
X179019384Y-82631047D01*
X178731047Y-82919384D01*
X178575000Y-83296115D01*
X178575000Y-83464340D01*
X177521904Y-84517437D01*
X177459281Y-84559280D01*
X177373492Y-84687673D01*
X177293517Y-84807365D01*
X177235307Y-85100000D01*
X177250001Y-85173870D01*
X177250000Y-110616339D01*
X176930566Y-110296905D01*
X176888721Y-110234279D01*
X176640636Y-110068515D01*
X176421867Y-110024999D01*
X176421866Y-110024999D01*
X176348001Y-110010306D01*
X176274136Y-110024999D01*
X153907628Y-110024999D01*
X153833763Y-110010306D01*
X153759898Y-110024999D01*
X153759897Y-110024999D01*
X153541128Y-110068515D01*
X153293043Y-110234279D01*
X153251200Y-110296902D01*
X147125455Y-116422648D01*
X147085867Y-116327075D01*
X146863918Y-116256290D01*
X146080208Y-117040000D01*
X146094351Y-117054143D01*
X145974143Y-117174351D01*
X145960000Y-117160208D01*
X145945858Y-117174351D01*
X145825650Y-117054143D01*
X145839792Y-117040000D01*
X145056082Y-116256290D01*
X144834133Y-116327075D01*
X144647010Y-116812194D01*
X144659778Y-117331994D01*
X144678420Y-117377001D01*
X143847661Y-117377001D01*
X142220660Y-115750000D01*
X142478750Y-115750000D01*
X142615000Y-115613750D01*
X142615000Y-114990000D01*
X142785000Y-114990000D01*
X142785000Y-115613750D01*
X142921250Y-115750000D01*
X143583407Y-115750000D01*
X143783717Y-115667029D01*
X143937029Y-115513718D01*
X144020000Y-115313407D01*
X144020000Y-115126250D01*
X143883750Y-114990000D01*
X142785000Y-114990000D01*
X142615000Y-114990000D01*
X141516250Y-114990000D01*
X141488455Y-115017795D01*
X138712244Y-112241585D01*
X138712244Y-112065000D01*
X138663737Y-111821137D01*
X138602841Y-111730000D01*
X138663737Y-111638863D01*
X138712244Y-111395000D01*
X138712244Y-110795000D01*
X141287756Y-110795000D01*
X141287756Y-111395000D01*
X141336263Y-111638863D01*
X141397159Y-111730000D01*
X141336263Y-111821137D01*
X141287756Y-112065000D01*
X141287756Y-112665000D01*
X141336263Y-112908863D01*
X141397159Y-113000000D01*
X141336263Y-113091137D01*
X141287756Y-113335000D01*
X141287756Y-113935000D01*
X141336263Y-114178863D01*
X141444506Y-114340861D01*
X141380000Y-114496593D01*
X141380000Y-114683750D01*
X141516250Y-114820000D01*
X142615000Y-114820000D01*
X142615000Y-114800000D01*
X142785000Y-114800000D01*
X142785000Y-114820000D01*
X143883750Y-114820000D01*
X144020000Y-114683750D01*
X144020000Y-114496593D01*
X143973777Y-114385000D01*
X144573000Y-114385000D01*
X144573000Y-114775891D01*
X144784158Y-115285672D01*
X145174328Y-115675842D01*
X145498345Y-115810054D01*
X145247075Y-115914133D01*
X145176290Y-116136082D01*
X145960000Y-116919792D01*
X146743710Y-116136082D01*
X146672925Y-115914133D01*
X146412707Y-115813760D01*
X146745672Y-115675842D01*
X147135842Y-115285672D01*
X147347000Y-114775891D01*
X147347000Y-114224109D01*
X147332224Y-114188436D01*
X152270660Y-109250000D01*
X175300431Y-109250000D01*
X175419384Y-109368953D01*
X175796115Y-109525000D01*
X176203885Y-109525000D01*
X176580616Y-109368953D01*
X176868953Y-109080616D01*
X177025000Y-108703885D01*
X177025000Y-108296115D01*
X176868953Y-107919384D01*
X176580616Y-107631047D01*
X176203885Y-107475000D01*
X175796115Y-107475000D01*
X175419384Y-107631047D01*
X175300431Y-107750000D01*
X152033864Y-107750000D01*
X151959999Y-107735307D01*
X151886134Y-107750000D01*
X151667365Y-107793516D01*
X151419280Y-107959280D01*
X151377437Y-108021903D01*
X147347000Y-112052341D01*
X147347000Y-111684109D01*
X147332224Y-111648435D01*
X159730660Y-99250000D01*
X175300431Y-99250000D01*
X175419384Y-99368953D01*
X175796115Y-99525000D01*
X176203885Y-99525000D01*
X176580616Y-99368953D01*
X176868953Y-99080616D01*
X177025000Y-98703885D01*
X177025000Y-98296115D01*
X176868953Y-97919384D01*
X176580616Y-97631047D01*
X176203885Y-97475000D01*
X175796115Y-97475000D01*
X175419384Y-97631047D01*
X175300431Y-97750000D01*
X159702660Y-97750000D01*
X168202660Y-89250000D01*
X175300431Y-89250000D01*
X175419384Y-89368953D01*
X175796115Y-89525000D01*
X176203885Y-89525000D01*
X176580616Y-89368953D01*
X176868953Y-89080616D01*
X177025000Y-88703885D01*
X177025000Y-88296115D01*
X176868953Y-87919384D01*
X176580616Y-87631047D01*
X176203885Y-87475000D01*
X175796115Y-87475000D01*
X175419384Y-87631047D01*
X175300431Y-87750000D01*
X167965866Y-87750000D01*
X167892000Y-87735307D01*
X167599364Y-87793516D01*
X167511205Y-87852422D01*
X167351280Y-87959280D01*
X167309437Y-88021903D01*
X147143431Y-108187910D01*
X146965863Y-108069263D01*
X146722000Y-108020756D01*
X145198000Y-108020756D01*
X144954137Y-108069263D01*
X144747400Y-108207400D01*
X144609263Y-108414137D01*
X144560756Y-108658000D01*
X144560756Y-110182000D01*
X144593178Y-110345000D01*
X143926001Y-110345000D01*
X143925600Y-110344400D01*
X143718863Y-110206263D01*
X143475000Y-110157756D01*
X141925000Y-110157756D01*
X141681137Y-110206263D01*
X141474400Y-110344400D01*
X141336263Y-110551137D01*
X141287756Y-110795000D01*
X138712244Y-110795000D01*
X138663737Y-110551137D01*
X138525600Y-110344400D01*
X138318863Y-110206263D01*
X138075000Y-110157756D01*
X137943269Y-110157756D01*
X137930980Y-110139365D01*
X137840720Y-110004280D01*
X137778097Y-109962437D01*
X136797565Y-108981906D01*
X136755720Y-108919280D01*
X136507635Y-108753516D01*
X136288866Y-108710000D01*
X136288865Y-108710000D01*
X136215000Y-108695307D01*
X136141135Y-108710000D01*
X135230618Y-108710000D01*
X135215842Y-108674328D01*
X134825672Y-108284158D01*
X134315891Y-108073000D01*
X133764109Y-108073000D01*
X133254328Y-108284158D01*
X132864158Y-108674328D01*
X132653000Y-109184109D01*
X132653000Y-109715629D01*
X129815025Y-112553605D01*
X129748233Y-112598234D01*
X129703604Y-112665026D01*
X129703602Y-112665028D01*
X129584620Y-112843098D01*
X129571417Y-112862857D01*
X129526010Y-113091137D01*
X129509328Y-113175001D01*
X129525000Y-113253790D01*
X129525000Y-115992756D01*
X128500000Y-115992756D01*
X128256137Y-116041263D01*
X128049400Y-116179400D01*
X127948772Y-116330000D01*
X104437244Y-116330000D01*
X104437244Y-116200000D01*
X104388737Y-115956137D01*
X104250600Y-115749400D01*
X104043863Y-115611263D01*
X103800000Y-115562756D01*
X102200000Y-115562756D01*
X101956137Y-115611263D01*
X101749400Y-115749400D01*
X101611263Y-115956137D01*
X101562756Y-116200000D01*
X90700000Y-116200000D01*
X90700000Y-111431381D01*
X102188827Y-111431381D01*
X102264257Y-111657274D01*
X102763131Y-111850739D01*
X103298067Y-111838566D01*
X103735743Y-111657274D01*
X103811173Y-111431381D01*
X103000000Y-110620208D01*
X102188827Y-111431381D01*
X90700000Y-111431381D01*
X90700000Y-110263131D01*
X101649261Y-110263131D01*
X101661434Y-110798067D01*
X101842726Y-111235743D01*
X102068619Y-111311173D01*
X102879792Y-110500000D01*
X103120208Y-110500000D01*
X103931381Y-111311173D01*
X104157274Y-111235743D01*
X104350739Y-110736869D01*
X104338566Y-110201933D01*
X104157274Y-109764257D01*
X103931381Y-109688827D01*
X103120208Y-110500000D01*
X102879792Y-110500000D01*
X102068619Y-109688827D01*
X101842726Y-109764257D01*
X101649261Y-110263131D01*
X90700000Y-110263131D01*
X90700000Y-109568619D01*
X102188827Y-109568619D01*
X103000000Y-110379792D01*
X103811173Y-109568619D01*
X103735743Y-109342726D01*
X103236869Y-109149261D01*
X102701933Y-109161434D01*
X102264257Y-109342726D01*
X102188827Y-109568619D01*
X90700000Y-109568619D01*
X90700000Y-50719942D01*
X94141505Y-51018009D01*
X94145394Y-51018315D01*
X94149333Y-51018643D01*
X102799043Y-51670116D01*
X102810013Y-51670856D01*
X111468890Y-52186386D01*
X111479871Y-52186953D01*
X120145776Y-52566411D01*
X120156764Y-52566806D01*
X128827562Y-52810099D01*
X128838555Y-52810321D01*
X137512104Y-52917389D01*
X137523099Y-52917438D01*
X146197259Y-52888255D01*
X146208254Y-52888132D01*
X154880886Y-52722704D01*
X154891878Y-52722408D01*
X154891882Y-52722408D01*
X163560841Y-52420778D01*
X163571827Y-52420309D01*
X172234983Y-51982549D01*
X172240908Y-51982203D01*
X172245960Y-51981908D01*
X180901172Y-51408127D01*
X180912137Y-51407314D01*
X180912263Y-51407303D01*
X189300001Y-50718771D01*
X189300000Y-149280058D01*
X189300000Y-149280058D01*
G37*
X189300000Y-149280058D02*
X185858494Y-148981991D01*
X185854618Y-148981686D01*
X185850667Y-148981357D01*
X177200957Y-148329884D01*
X177189987Y-148329144D01*
X168531110Y-147813614D01*
X168520129Y-147813047D01*
X159854224Y-147433589D01*
X159843236Y-147433194D01*
X151172439Y-147189901D01*
X151161445Y-147189679D01*
X142487896Y-147082611D01*
X142476901Y-147082562D01*
X133802741Y-147111745D01*
X133791746Y-147111868D01*
X133791744Y-147111868D01*
X125119114Y-147277296D01*
X125108123Y-147277592D01*
X116439162Y-147579223D01*
X116439158Y-147579223D01*
X116428173Y-147579692D01*
X107765017Y-148017451D01*
X107754040Y-148018092D01*
X99098828Y-148591873D01*
X99087863Y-148592686D01*
X99087737Y-148592697D01*
X90700000Y-149281228D01*
X90700000Y-116200000D01*
X101562756Y-116200000D01*
X101562756Y-117800000D01*
X101611263Y-118043863D01*
X101749400Y-118250600D01*
X101956137Y-118388737D01*
X102200000Y-118437244D01*
X103800000Y-118437244D01*
X104043863Y-118388737D01*
X104250600Y-118250600D01*
X104388737Y-118043863D01*
X104431277Y-117830000D01*
X127948772Y-117830000D01*
X128049400Y-117980600D01*
X128256137Y-118118737D01*
X128500000Y-118167244D01*
X129524999Y-118167244D01*
X129524999Y-119421216D01*
X129509328Y-119500000D01*
X129524999Y-119578784D01*
X129524999Y-119578788D01*
X129525000Y-119578793D01*
X129524999Y-126393631D01*
X123990026Y-131928604D01*
X123923234Y-131973233D01*
X123878605Y-132040025D01*
X123878603Y-132040027D01*
X123746418Y-132237856D01*
X123741465Y-132262756D01*
X122850000Y-132262756D01*
X122606137Y-132311263D01*
X122399400Y-132449400D01*
X122261263Y-132656137D01*
X122212756Y-132900000D01*
X122212756Y-137100000D01*
X122261263Y-137343863D01*
X122399400Y-137550600D01*
X122606137Y-137688737D01*
X122850000Y-137737244D01*
X126150000Y-137737244D01*
X126393863Y-137688737D01*
X126600600Y-137550600D01*
X126738737Y-137343863D01*
X126787244Y-137100000D01*
X126787244Y-135221250D01*
X151305000Y-135221250D01*
X151305000Y-137208407D01*
X151387971Y-137408718D01*
X151541283Y-137562029D01*
X151741593Y-137645000D01*
X153278750Y-137645000D01*
X153415000Y-137508750D01*
X153415000Y-135085000D01*
X153585000Y-135085000D01*
X153585000Y-137508750D01*
X153721250Y-137645000D01*
X155258407Y-137645000D01*
X155458717Y-137562029D01*
X155612029Y-137408718D01*
X155695000Y-137208407D01*
X155695000Y-135221250D01*
X155558750Y-135085000D01*
X153585000Y-135085000D01*
X153415000Y-135085000D01*
X151441250Y-135085000D01*
X151305000Y-135221250D01*
X126787244Y-135221250D01*
X126787244Y-132900000D01*
X126765681Y-132791593D01*
X151305000Y-132791593D01*
X151305000Y-134778750D01*
X151441250Y-134915000D01*
X153415000Y-134915000D01*
X153415000Y-132491250D01*
X153585000Y-132491250D01*
X153585000Y-134915000D01*
X155558750Y-134915000D01*
X155695000Y-134778750D01*
X155695000Y-132791593D01*
X155612029Y-132591282D01*
X155458717Y-132437971D01*
X155258407Y-132355000D01*
X153721250Y-132355000D01*
X153585000Y-132491250D01*
X153415000Y-132491250D01*
X153278750Y-132355000D01*
X151741593Y-132355000D01*
X151541283Y-132437971D01*
X151387971Y-132591282D01*
X151305000Y-132791593D01*
X126765681Y-132791593D01*
X126738737Y-132656137D01*
X126600600Y-132449400D01*
X126393863Y-132311263D01*
X126150000Y-132262756D01*
X125918614Y-132262756D01*
X130834971Y-127346399D01*
X130901766Y-127301768D01*
X131000733Y-127153654D01*
X131078582Y-127037146D01*
X131140671Y-126725001D01*
X131124999Y-126646212D01*
X131124999Y-120327031D01*
X173624185Y-120327031D01*
X173702969Y-120342702D01*
X173781753Y-120327031D01*
X173781758Y-120327031D01*
X174015113Y-120280614D01*
X174279736Y-120103798D01*
X174324367Y-120037003D01*
X175204371Y-119157000D01*
X175715629Y-119157000D01*
X175975604Y-119416975D01*
X176020234Y-119483768D01*
X176284857Y-119660584D01*
X176518212Y-119707001D01*
X176518216Y-119707001D01*
X176597000Y-119722672D01*
X176675784Y-119707001D01*
X178466977Y-119707001D01*
X178545761Y-119722672D01*
X178624545Y-119707001D01*
X178624550Y-119707001D01*
X178857905Y-119660584D01*
X179122528Y-119483768D01*
X179167159Y-119416973D01*
X179646973Y-118937159D01*
X179713768Y-118892528D01*
X179789746Y-118778820D01*
X179827075Y-118895867D01*
X180312194Y-119082990D01*
X180831994Y-119070222D01*
X181252925Y-118895867D01*
X181323710Y-118673918D01*
X180540000Y-117890208D01*
X180525858Y-117904351D01*
X180405650Y-117784143D01*
X180419792Y-117770000D01*
X180660208Y-117770000D01*
X181443918Y-118553710D01*
X181665867Y-118482925D01*
X181852990Y-117997806D01*
X181840222Y-117478006D01*
X181665867Y-117057075D01*
X181443918Y-116986290D01*
X180660208Y-117770000D01*
X180419792Y-117770000D01*
X180405650Y-117755858D01*
X180525858Y-117635650D01*
X180540000Y-117649792D01*
X181323710Y-116866082D01*
X181252925Y-116644133D01*
X180992707Y-116543760D01*
X181325672Y-116405842D01*
X181715842Y-116015672D01*
X181927000Y-115505891D01*
X181927000Y-114954109D01*
X181715842Y-114444328D01*
X181325672Y-114054158D01*
X181290000Y-114039382D01*
X181290000Y-89113864D01*
X181304693Y-89039999D01*
X181289197Y-88962099D01*
X181246484Y-88747365D01*
X181080720Y-88499280D01*
X181025000Y-88462049D01*
X181025000Y-88296115D01*
X180868953Y-87919384D01*
X180580616Y-87631047D01*
X180203885Y-87475000D01*
X179937001Y-87475000D01*
X179937001Y-85441371D01*
X180884976Y-84493397D01*
X180951768Y-84448768D01*
X181013475Y-84356418D01*
X181128583Y-84184146D01*
X181128584Y-84184145D01*
X181175001Y-83950790D01*
X181175001Y-83950786D01*
X181190672Y-83872002D01*
X181175001Y-83793218D01*
X181175001Y-79353785D01*
X181190672Y-79275001D01*
X181175001Y-79196217D01*
X181175001Y-79196212D01*
X181128584Y-78962857D01*
X181046387Y-78839841D01*
X180996398Y-78765027D01*
X180996397Y-78765026D01*
X180951768Y-78698234D01*
X180884975Y-78653604D01*
X180625000Y-78393629D01*
X180625000Y-78296115D01*
X180468953Y-77919384D01*
X180180616Y-77631047D01*
X179803885Y-77475000D01*
X179396115Y-77475000D01*
X179019384Y-77631047D01*
X178731047Y-77919384D01*
X178575000Y-78296115D01*
X178575000Y-78703885D01*
X178731047Y-79080616D01*
X179019384Y-79368953D01*
X179396115Y-79525000D01*
X179493629Y-79525000D01*
X179575002Y-79606373D01*
X179575001Y-82475000D01*
X179396115Y-82475000D01*
X179019384Y-82631047D01*
X178731047Y-82919384D01*
X178575000Y-83296115D01*
X178575000Y-83464340D01*
X177521904Y-84517437D01*
X177459281Y-84559280D01*
X177373492Y-84687673D01*
X177293517Y-84807365D01*
X177235307Y-85100000D01*
X177250001Y-85173870D01*
X177250000Y-110616339D01*
X176930566Y-110296905D01*
X176888721Y-110234279D01*
X176640636Y-110068515D01*
X176421867Y-110024999D01*
X176421866Y-110024999D01*
X176348001Y-110010306D01*
X176274136Y-110024999D01*
X153907628Y-110024999D01*
X153833763Y-110010306D01*
X153759898Y-110024999D01*
X153759897Y-110024999D01*
X153541128Y-110068515D01*
X153293043Y-110234279D01*
X153251200Y-110296902D01*
X147125455Y-116422648D01*
X147085867Y-116327075D01*
X146863918Y-116256290D01*
X146080208Y-117040000D01*
X146094351Y-117054143D01*
X145974143Y-117174351D01*
X145960000Y-117160208D01*
X145945858Y-117174351D01*
X145825650Y-117054143D01*
X145839792Y-117040000D01*
X145056082Y-116256290D01*
X144834133Y-116327075D01*
X144647010Y-116812194D01*
X144659778Y-117331994D01*
X144678420Y-117377001D01*
X143847661Y-117377001D01*
X142220660Y-115750000D01*
X142478750Y-115750000D01*
X142615000Y-115613750D01*
X142615000Y-114990000D01*
X142785000Y-114990000D01*
X142785000Y-115613750D01*
X142921250Y-115750000D01*
X143583407Y-115750000D01*
X143783717Y-115667029D01*
X143937029Y-115513718D01*
X144020000Y-115313407D01*
X144020000Y-115126250D01*
X143883750Y-114990000D01*
X142785000Y-114990000D01*
X142615000Y-114990000D01*
X141516250Y-114990000D01*
X141488455Y-115017795D01*
X138712244Y-112241585D01*
X138712244Y-112065000D01*
X138663737Y-111821137D01*
X138602841Y-111730000D01*
X138663737Y-111638863D01*
X138712244Y-111395000D01*
X138712244Y-110795000D01*
X141287756Y-110795000D01*
X141287756Y-111395000D01*
X141336263Y-111638863D01*
X141397159Y-111730000D01*
X141336263Y-111821137D01*
X141287756Y-112065000D01*
X141287756Y-112665000D01*
X141336263Y-112908863D01*
X141397159Y-113000000D01*
X141336263Y-113091137D01*
X141287756Y-113335000D01*
X141287756Y-113935000D01*
X141336263Y-114178863D01*
X141444506Y-114340861D01*
X141380000Y-114496593D01*
X141380000Y-114683750D01*
X141516250Y-114820000D01*
X142615000Y-114820000D01*
X142615000Y-114800000D01*
X142785000Y-114800000D01*
X142785000Y-114820000D01*
X143883750Y-114820000D01*
X144020000Y-114683750D01*
X144020000Y-114496593D01*
X143973777Y-114385000D01*
X144573000Y-114385000D01*
X144573000Y-114775891D01*
X144784158Y-115285672D01*
X145174328Y-115675842D01*
X145498345Y-115810054D01*
X145247075Y-115914133D01*
X145176290Y-116136082D01*
X145960000Y-116919792D01*
X146743710Y-116136082D01*
X146672925Y-115914133D01*
X146412707Y-115813760D01*
X146745672Y-115675842D01*
X147135842Y-115285672D01*
X147347000Y-114775891D01*
X147347000Y-114224109D01*
X147332224Y-114188436D01*
X152270660Y-109250000D01*
X175300431Y-109250000D01*
X175419384Y-109368953D01*
X175796115Y-109525000D01*
X176203885Y-109525000D01*
X176580616Y-109368953D01*
X176868953Y-109080616D01*
X177025000Y-108703885D01*
X177025000Y-108296115D01*
X176868953Y-107919384D01*
X176580616Y-107631047D01*
X176203885Y-107475000D01*
X175796115Y-107475000D01*
X175419384Y-107631047D01*
X175300431Y-107750000D01*
X152033864Y-107750000D01*
X151959999Y-107735307D01*
X151886134Y-107750000D01*
X151667365Y-107793516D01*
X151419280Y-107959280D01*
X151377437Y-108021903D01*
X147347000Y-112052341D01*
X147347000Y-111684109D01*
X147332224Y-111648435D01*
X159730660Y-99250000D01*
X175300431Y-99250000D01*
X175419384Y-99368953D01*
X175796115Y-99525000D01*
X176203885Y-99525000D01*
X176580616Y-99368953D01*
X176868953Y-99080616D01*
X177025000Y-98703885D01*
X177025000Y-98296115D01*
X176868953Y-97919384D01*
X176580616Y-97631047D01*
X176203885Y-97475000D01*
X175796115Y-97475000D01*
X175419384Y-97631047D01*
X175300431Y-97750000D01*
X159702660Y-97750000D01*
X168202660Y-89250000D01*
X175300431Y-89250000D01*
X175419384Y-89368953D01*
X175796115Y-89525000D01*
X176203885Y-89525000D01*
X176580616Y-89368953D01*
X176868953Y-89080616D01*
X177025000Y-88703885D01*
X177025000Y-88296115D01*
X176868953Y-87919384D01*
X176580616Y-87631047D01*
X176203885Y-87475000D01*
X175796115Y-87475000D01*
X175419384Y-87631047D01*
X175300431Y-87750000D01*
X167965866Y-87750000D01*
X167892000Y-87735307D01*
X167599364Y-87793516D01*
X167511205Y-87852422D01*
X167351280Y-87959280D01*
X167309437Y-88021903D01*
X147143431Y-108187910D01*
X146965863Y-108069263D01*
X146722000Y-108020756D01*
X145198000Y-108020756D01*
X144954137Y-108069263D01*
X144747400Y-108207400D01*
X144609263Y-108414137D01*
X144560756Y-108658000D01*
X144560756Y-110182000D01*
X144593178Y-110345000D01*
X143926001Y-110345000D01*
X143925600Y-110344400D01*
X143718863Y-110206263D01*
X143475000Y-110157756D01*
X141925000Y-110157756D01*
X141681137Y-110206263D01*
X141474400Y-110344400D01*
X141336263Y-110551137D01*
X141287756Y-110795000D01*
X138712244Y-110795000D01*
X138663737Y-110551137D01*
X138525600Y-110344400D01*
X138318863Y-110206263D01*
X138075000Y-110157756D01*
X137943269Y-110157756D01*
X137930980Y-110139365D01*
X137840720Y-110004280D01*
X137778097Y-109962437D01*
X136797565Y-108981906D01*
X136755720Y-108919280D01*
X136507635Y-108753516D01*
X136288866Y-108710000D01*
X136288865Y-108710000D01*
X136215000Y-108695307D01*
X136141135Y-108710000D01*
X135230618Y-108710000D01*
X135215842Y-108674328D01*
X134825672Y-108284158D01*
X134315891Y-108073000D01*
X133764109Y-108073000D01*
X133254328Y-108284158D01*
X132864158Y-108674328D01*
X132653000Y-109184109D01*
X132653000Y-109715629D01*
X129815025Y-112553605D01*
X129748233Y-112598234D01*
X129703604Y-112665026D01*
X129703602Y-112665028D01*
X129584620Y-112843098D01*
X129571417Y-112862857D01*
X129526010Y-113091137D01*
X129509328Y-113175001D01*
X129525000Y-113253790D01*
X129525000Y-115992756D01*
X128500000Y-115992756D01*
X128256137Y-116041263D01*
X128049400Y-116179400D01*
X127948772Y-116330000D01*
X104437244Y-116330000D01*
X104437244Y-116200000D01*
X104388737Y-115956137D01*
X104250600Y-115749400D01*
X104043863Y-115611263D01*
X103800000Y-115562756D01*
X102200000Y-115562756D01*
X101956137Y-115611263D01*
X101749400Y-115749400D01*
X101611263Y-115956137D01*
X101562756Y-116200000D01*
X90700000Y-116200000D01*
X90700000Y-111431381D01*
X102188827Y-111431381D01*
X102264257Y-111657274D01*
X102763131Y-111850739D01*
X103298067Y-111838566D01*
X103735743Y-111657274D01*
X103811173Y-111431381D01*
X103000000Y-110620208D01*
X102188827Y-111431381D01*
X90700000Y-111431381D01*
X90700000Y-110263131D01*
X101649261Y-110263131D01*
X101661434Y-110798067D01*
X101842726Y-111235743D01*
X102068619Y-111311173D01*
X102879792Y-110500000D01*
X103120208Y-110500000D01*
X103931381Y-111311173D01*
X104157274Y-111235743D01*
X104350739Y-110736869D01*
X104338566Y-110201933D01*
X104157274Y-109764257D01*
X103931381Y-109688827D01*
X103120208Y-110500000D01*
X102879792Y-110500000D01*
X102068619Y-109688827D01*
X101842726Y-109764257D01*
X101649261Y-110263131D01*
X90700000Y-110263131D01*
X90700000Y-109568619D01*
X102188827Y-109568619D01*
X103000000Y-110379792D01*
X103811173Y-109568619D01*
X103735743Y-109342726D01*
X103236869Y-109149261D01*
X102701933Y-109161434D01*
X102264257Y-109342726D01*
X102188827Y-109568619D01*
X90700000Y-109568619D01*
X90700000Y-50719942D01*
X94141505Y-51018009D01*
X94145394Y-51018315D01*
X94149333Y-51018643D01*
X102799043Y-51670116D01*
X102810013Y-51670856D01*
X111468890Y-52186386D01*
X111479871Y-52186953D01*
X120145776Y-52566411D01*
X120156764Y-52566806D01*
X128827562Y-52810099D01*
X128838555Y-52810321D01*
X137512104Y-52917389D01*
X137523099Y-52917438D01*
X146197259Y-52888255D01*
X146208254Y-52888132D01*
X154880886Y-52722704D01*
X154891878Y-52722408D01*
X154891882Y-52722408D01*
X163560841Y-52420778D01*
X163571827Y-52420309D01*
X172234983Y-51982549D01*
X172240908Y-51982203D01*
X172245960Y-51981908D01*
X180901172Y-51408127D01*
X180912137Y-51407314D01*
X180912263Y-51407303D01*
X189300001Y-50718771D01*
X189300000Y-149280058D01*
G36*
X177250000Y-112737658D02*
X177250000Y-114039382D01*
X177214328Y-114054158D01*
X176849495Y-114418991D01*
X176810737Y-114224137D01*
X176672600Y-114017400D01*
X176465863Y-113879263D01*
X176222000Y-113830756D01*
X174698000Y-113830756D01*
X174454137Y-113879263D01*
X174247400Y-114017400D01*
X174109263Y-114224137D01*
X174060756Y-114468000D01*
X174060756Y-114586731D01*
X173907280Y-114689280D01*
X173865437Y-114751903D01*
X170790330Y-117827011D01*
X167637671Y-117827011D01*
X166887244Y-117076585D01*
X166887244Y-116500000D01*
X166838737Y-116256137D01*
X166700600Y-116049400D01*
X166493863Y-115911263D01*
X166250000Y-115862756D01*
X163750000Y-115862756D01*
X163506137Y-115911263D01*
X163299400Y-116049400D01*
X163165364Y-116250000D01*
X162834636Y-116250000D01*
X162700600Y-116049400D01*
X162493863Y-115911263D01*
X162250000Y-115862756D01*
X159750000Y-115862756D01*
X159506137Y-115911263D01*
X159299400Y-116049400D01*
X159161263Y-116256137D01*
X159112756Y-116500000D01*
X159112756Y-117500000D01*
X159161263Y-117743863D01*
X159216821Y-117827011D01*
X147842410Y-117827011D01*
X151448171Y-114221250D01*
X159205000Y-114221250D01*
X159205000Y-114608407D01*
X159287971Y-114808718D01*
X159441283Y-114962029D01*
X159641593Y-115045000D01*
X160778750Y-115045000D01*
X160915000Y-114908750D01*
X160915000Y-114085000D01*
X161085000Y-114085000D01*
X161085000Y-114908750D01*
X161221250Y-115045000D01*
X162358407Y-115045000D01*
X162558717Y-114962029D01*
X162712029Y-114808718D01*
X162795000Y-114608407D01*
X162795000Y-114221250D01*
X163205000Y-114221250D01*
X163205000Y-114608407D01*
X163287971Y-114808718D01*
X163441283Y-114962029D01*
X163641593Y-115045000D01*
X164778750Y-115045000D01*
X164915000Y-114908750D01*
X164915000Y-114085000D01*
X165085000Y-114085000D01*
X165085000Y-114908750D01*
X165221250Y-115045000D01*
X166358407Y-115045000D01*
X166558717Y-114962029D01*
X166712029Y-114808718D01*
X166795000Y-114608407D01*
X166795000Y-114221250D01*
X166658750Y-114085000D01*
X165085000Y-114085000D01*
X164915000Y-114085000D01*
X163341250Y-114085000D01*
X163205000Y-114221250D01*
X162795000Y-114221250D01*
X162658750Y-114085000D01*
X161085000Y-114085000D01*
X160915000Y-114085000D01*
X159341250Y-114085000D01*
X159205000Y-114221250D01*
X151448171Y-114221250D01*
X152277828Y-113391593D01*
X159205000Y-113391593D01*
X159205000Y-113778750D01*
X159341250Y-113915000D01*
X160915000Y-113915000D01*
X160915000Y-113091250D01*
X161085000Y-113091250D01*
X161085000Y-113915000D01*
X162658750Y-113915000D01*
X162795000Y-113778750D01*
X162795000Y-113391593D01*
X163205000Y-113391593D01*
X163205000Y-113778750D01*
X163341250Y-113915000D01*
X164915000Y-113915000D01*
X164915000Y-113091250D01*
X165085000Y-113091250D01*
X165085000Y-113915000D01*
X166658750Y-113915000D01*
X166795000Y-113778750D01*
X166795000Y-113391593D01*
X166712029Y-113191282D01*
X166558717Y-113037971D01*
X166358407Y-112955000D01*
X165221250Y-112955000D01*
X165085000Y-113091250D01*
X164915000Y-113091250D01*
X164778750Y-112955000D01*
X163641593Y-112955000D01*
X163441283Y-113037971D01*
X163287971Y-113191282D01*
X163205000Y-113391593D01*
X162795000Y-113391593D01*
X162712029Y-113191282D01*
X162558717Y-113037971D01*
X162358407Y-112955000D01*
X161221250Y-112955000D01*
X161085000Y-113091250D01*
X160915000Y-113091250D01*
X160778750Y-112955000D01*
X159641593Y-112955000D01*
X159441283Y-113037971D01*
X159287971Y-113191282D01*
X159205000Y-113391593D01*
X152277828Y-113391593D01*
X154144423Y-111524999D01*
X176037342Y-111524999D01*
X177250000Y-112737658D01*
X177250000Y-112737658D01*
G37*
X177250000Y-112737658D02*
X177250000Y-114039382D01*
X177214328Y-114054158D01*
X176849495Y-114418991D01*
X176810737Y-114224137D01*
X176672600Y-114017400D01*
X176465863Y-113879263D01*
X176222000Y-113830756D01*
X174698000Y-113830756D01*
X174454137Y-113879263D01*
X174247400Y-114017400D01*
X174109263Y-114224137D01*
X174060756Y-114468000D01*
X174060756Y-114586731D01*
X173907280Y-114689280D01*
X173865437Y-114751903D01*
X170790330Y-117827011D01*
X167637671Y-117827011D01*
X166887244Y-117076585D01*
X166887244Y-116500000D01*
X166838737Y-116256137D01*
X166700600Y-116049400D01*
X166493863Y-115911263D01*
X166250000Y-115862756D01*
X163750000Y-115862756D01*
X163506137Y-115911263D01*
X163299400Y-116049400D01*
X163165364Y-116250000D01*
X162834636Y-116250000D01*
X162700600Y-116049400D01*
X162493863Y-115911263D01*
X162250000Y-115862756D01*
X159750000Y-115862756D01*
X159506137Y-115911263D01*
X159299400Y-116049400D01*
X159161263Y-116256137D01*
X159112756Y-116500000D01*
X159112756Y-117500000D01*
X159161263Y-117743863D01*
X159216821Y-117827011D01*
X147842410Y-117827011D01*
X151448171Y-114221250D01*
X159205000Y-114221250D01*
X159205000Y-114608407D01*
X159287971Y-114808718D01*
X159441283Y-114962029D01*
X159641593Y-115045000D01*
X160778750Y-115045000D01*
X160915000Y-114908750D01*
X160915000Y-114085000D01*
X161085000Y-114085000D01*
X161085000Y-114908750D01*
X161221250Y-115045000D01*
X162358407Y-115045000D01*
X162558717Y-114962029D01*
X162712029Y-114808718D01*
X162795000Y-114608407D01*
X162795000Y-114221250D01*
X163205000Y-114221250D01*
X163205000Y-114608407D01*
X163287971Y-114808718D01*
X163441283Y-114962029D01*
X163641593Y-115045000D01*
X164778750Y-115045000D01*
X164915000Y-114908750D01*
X164915000Y-114085000D01*
X165085000Y-114085000D01*
X165085000Y-114908750D01*
X165221250Y-115045000D01*
X166358407Y-115045000D01*
X166558717Y-114962029D01*
X166712029Y-114808718D01*
X166795000Y-114608407D01*
X166795000Y-114221250D01*
X166658750Y-114085000D01*
X165085000Y-114085000D01*
X164915000Y-114085000D01*
X163341250Y-114085000D01*
X163205000Y-114221250D01*
X162795000Y-114221250D01*
X162658750Y-114085000D01*
X161085000Y-114085000D01*
X160915000Y-114085000D01*
X159341250Y-114085000D01*
X159205000Y-114221250D01*
X151448171Y-114221250D01*
X152277828Y-113391593D01*
X159205000Y-113391593D01*
X159205000Y-113778750D01*
X159341250Y-113915000D01*
X160915000Y-113915000D01*
X160915000Y-113091250D01*
X161085000Y-113091250D01*
X161085000Y-113915000D01*
X162658750Y-113915000D01*
X162795000Y-113778750D01*
X162795000Y-113391593D01*
X163205000Y-113391593D01*
X163205000Y-113778750D01*
X163341250Y-113915000D01*
X164915000Y-113915000D01*
X164915000Y-113091250D01*
X165085000Y-113091250D01*
X165085000Y-113915000D01*
X166658750Y-113915000D01*
X166795000Y-113778750D01*
X166795000Y-113391593D01*
X166712029Y-113191282D01*
X166558717Y-113037971D01*
X166358407Y-112955000D01*
X165221250Y-112955000D01*
X165085000Y-113091250D01*
X164915000Y-113091250D01*
X164778750Y-112955000D01*
X163641593Y-112955000D01*
X163441283Y-113037971D01*
X163287971Y-113191282D01*
X163205000Y-113391593D01*
X162795000Y-113391593D01*
X162712029Y-113191282D01*
X162558717Y-113037971D01*
X162358407Y-112955000D01*
X161221250Y-112955000D01*
X161085000Y-113091250D01*
X160915000Y-113091250D01*
X160778750Y-112955000D01*
X159641593Y-112955000D01*
X159441283Y-113037971D01*
X159287971Y-113191282D01*
X159205000Y-113391593D01*
X152277828Y-113391593D01*
X154144423Y-111524999D01*
X176037342Y-111524999D01*
X177250000Y-112737658D01*
G04 #@! TD*
M02*
