%TF.GenerationSoftware,KiCad,Pcbnew,5.0.0*%
%TF.CreationDate,2018-09-20T16:03:51+02:00*%
%TF.ProjectId,adri,616472692E6B696361645F7063620000,rev?*%
%TF.SameCoordinates,Original*%
%TF.FileFunction,Legend,Bot*%
%TF.FilePolarity,Positive*%
%FSLAX46Y46*%
G04 Gerber Fmt 4.6, Leading zero omitted, Abs format (unit mm)*
G04 Created by KiCad (PCBNEW 5.0.0) date Thu Sep 20 16:03:51 2018*
%MOMM*%
%LPD*%
G01*
G04 APERTURE LIST*
%ADD10C,0.150000*%
%ADD11C,0.300000*%
%ADD12C,0.200000*%
%ADD13C,0.120000*%
%ADD14C,0.203200*%
G04 APERTURE END LIST*
D10*
X169452380Y-92452380D02*
X169452380Y-91452380D01*
X168976190Y-92452380D02*
X168976190Y-91452380D01*
X168738095Y-91452380D01*
X168595238Y-91500000D01*
X168500000Y-91595238D01*
X168452380Y-91690476D01*
X168404761Y-91880952D01*
X168404761Y-92023809D01*
X168452380Y-92214285D01*
X168500000Y-92309523D01*
X168595238Y-92404761D01*
X168738095Y-92452380D01*
X168976190Y-92452380D01*
X167976190Y-92357142D02*
X167928571Y-92404761D01*
X167976190Y-92452380D01*
X168023809Y-92404761D01*
X167976190Y-92357142D01*
X167976190Y-92452380D01*
X167976190Y-91833333D02*
X167928571Y-91880952D01*
X167976190Y-91928571D01*
X168023809Y-91880952D01*
X167976190Y-91833333D01*
X167976190Y-91928571D01*
X166166666Y-92357142D02*
X166214285Y-92404761D01*
X166357142Y-92452380D01*
X166452380Y-92452380D01*
X166595238Y-92404761D01*
X166690476Y-92309523D01*
X166738095Y-92214285D01*
X166785714Y-92023809D01*
X166785714Y-91880952D01*
X166738095Y-91690476D01*
X166690476Y-91595238D01*
X166595238Y-91500000D01*
X166452380Y-91452380D01*
X166357142Y-91452380D01*
X166214285Y-91500000D01*
X166166666Y-91547619D01*
X165785714Y-92166666D02*
X165309523Y-92166666D01*
X165880952Y-92452380D02*
X165547619Y-91452380D01*
X165214285Y-92452380D01*
X164976190Y-91452380D02*
X164309523Y-91452380D01*
X164738095Y-92452380D01*
X163928571Y-91928571D02*
X163595238Y-91928571D01*
X163452380Y-92452380D02*
X163928571Y-92452380D01*
X163928571Y-91452380D01*
X163452380Y-91452380D01*
X163071428Y-91547619D02*
X163023809Y-91500000D01*
X162928571Y-91452380D01*
X162690476Y-91452380D01*
X162595238Y-91500000D01*
X162547619Y-91547619D01*
X162500000Y-91642857D01*
X162500000Y-91738095D01*
X162547619Y-91880952D01*
X163119047Y-92452380D01*
X162500000Y-92452380D01*
G36*
X110000000Y-60000000D02*
X170000000Y-60000000D01*
X170000000Y-90000000D01*
X110000000Y-90000000D01*
X110000000Y-60000000D01*
G37*
X110000000Y-60000000D02*
X170000000Y-60000000D01*
X170000000Y-90000000D01*
X110000000Y-90000000D01*
X110000000Y-60000000D01*
X90500000Y-150000000D02*
G75*
G02X90000000Y-149500000I0J500000D01*
G01*
X190000000Y-149500000D02*
G75*
G02X189500000Y-150000000I-500000J0D01*
G01*
X189500000Y-50000000D02*
G75*
G02X190000000Y-50500000I0J-500000D01*
G01*
X90000000Y-50500000D02*
G75*
G02X90500000Y-50000000I500000J0D01*
G01*
D11*
X131685952Y-108052976D02*
X131269285Y-109302976D01*
X130852619Y-108052976D01*
X129900238Y-109243452D02*
X130019285Y-109302976D01*
X130257380Y-109302976D01*
X130376428Y-109243452D01*
X130435952Y-109183928D01*
X130495476Y-109064880D01*
X130495476Y-108707738D01*
X130435952Y-108588690D01*
X130376428Y-108529166D01*
X130257380Y-108469642D01*
X130019285Y-108469642D01*
X129900238Y-108529166D01*
X128828809Y-109243452D02*
X128947857Y-109302976D01*
X129185952Y-109302976D01*
X129305000Y-109243452D01*
X129364523Y-109183928D01*
X129424047Y-109064880D01*
X129424047Y-108707738D01*
X129364523Y-108588690D01*
X129305000Y-108529166D01*
X129185952Y-108469642D01*
X128947857Y-108469642D01*
X128828809Y-108529166D01*
X131507380Y-111477976D02*
X131507380Y-110227976D01*
X131031190Y-110227976D01*
X130912142Y-110287500D01*
X130852619Y-110347023D01*
X130793095Y-110466071D01*
X130793095Y-110644642D01*
X130852619Y-110763690D01*
X130912142Y-110823214D01*
X131031190Y-110882738D01*
X131507380Y-110882738D01*
X129840714Y-110823214D02*
X129662142Y-110882738D01*
X129602619Y-110942261D01*
X129543095Y-111061309D01*
X129543095Y-111239880D01*
X129602619Y-111358928D01*
X129662142Y-111418452D01*
X129781190Y-111477976D01*
X130257380Y-111477976D01*
X130257380Y-110227976D01*
X129840714Y-110227976D01*
X129721666Y-110287500D01*
X129662142Y-110347023D01*
X129602619Y-110466071D01*
X129602619Y-110585119D01*
X129662142Y-110704166D01*
X129721666Y-110763690D01*
X129840714Y-110823214D01*
X130257380Y-110823214D01*
X129066904Y-110347023D02*
X129007380Y-110287500D01*
X128888333Y-110227976D01*
X128590714Y-110227976D01*
X128471666Y-110287500D01*
X128412142Y-110347023D01*
X128352619Y-110466071D01*
X128352619Y-110585119D01*
X128412142Y-110763690D01*
X129126428Y-111477976D01*
X128352619Y-111477976D01*
X131507380Y-113652976D02*
X131507380Y-112402976D01*
X131031190Y-112402976D01*
X130912142Y-112462500D01*
X130852619Y-112522023D01*
X130793095Y-112641071D01*
X130793095Y-112819642D01*
X130852619Y-112938690D01*
X130912142Y-112998214D01*
X131031190Y-113057738D01*
X131507380Y-113057738D01*
X129840714Y-112998214D02*
X129662142Y-113057738D01*
X129602619Y-113117261D01*
X129543095Y-113236309D01*
X129543095Y-113414880D01*
X129602619Y-113533928D01*
X129662142Y-113593452D01*
X129781190Y-113652976D01*
X130257380Y-113652976D01*
X130257380Y-112402976D01*
X129840714Y-112402976D01*
X129721666Y-112462500D01*
X129662142Y-112522023D01*
X129602619Y-112641071D01*
X129602619Y-112760119D01*
X129662142Y-112879166D01*
X129721666Y-112938690D01*
X129840714Y-112998214D01*
X130257380Y-112998214D01*
X128352619Y-113652976D02*
X129066904Y-113652976D01*
X128709761Y-113652976D02*
X128709761Y-112402976D01*
X128828809Y-112581547D01*
X128947857Y-112700595D01*
X129066904Y-112760119D01*
X131507380Y-115827976D02*
X131507380Y-114577976D01*
X131031190Y-114577976D01*
X130912142Y-114637500D01*
X130852619Y-114697023D01*
X130793095Y-114816071D01*
X130793095Y-114994642D01*
X130852619Y-115113690D01*
X130912142Y-115173214D01*
X131031190Y-115232738D01*
X131507380Y-115232738D01*
X129840714Y-115173214D02*
X129662142Y-115232738D01*
X129602619Y-115292261D01*
X129543095Y-115411309D01*
X129543095Y-115589880D01*
X129602619Y-115708928D01*
X129662142Y-115768452D01*
X129781190Y-115827976D01*
X130257380Y-115827976D01*
X130257380Y-114577976D01*
X129840714Y-114577976D01*
X129721666Y-114637500D01*
X129662142Y-114697023D01*
X129602619Y-114816071D01*
X129602619Y-114935119D01*
X129662142Y-115054166D01*
X129721666Y-115113690D01*
X129840714Y-115173214D01*
X130257380Y-115173214D01*
X128769285Y-114577976D02*
X128650238Y-114577976D01*
X128531190Y-114637500D01*
X128471666Y-114697023D01*
X128412142Y-114816071D01*
X128352619Y-115054166D01*
X128352619Y-115351785D01*
X128412142Y-115589880D01*
X128471666Y-115708928D01*
X128531190Y-115768452D01*
X128650238Y-115827976D01*
X128769285Y-115827976D01*
X128888333Y-115768452D01*
X128947857Y-115708928D01*
X129007380Y-115589880D01*
X129066904Y-115351785D01*
X129066904Y-115054166D01*
X129007380Y-114816071D01*
X128947857Y-114697023D01*
X128888333Y-114637500D01*
X128769285Y-114577976D01*
X159206904Y-110302976D02*
X159623571Y-109707738D01*
X159921190Y-110302976D02*
X159921190Y-109052976D01*
X159445000Y-109052976D01*
X159325952Y-109112500D01*
X159266428Y-109172023D01*
X159206904Y-109291071D01*
X159206904Y-109469642D01*
X159266428Y-109588690D01*
X159325952Y-109648214D01*
X159445000Y-109707738D01*
X159921190Y-109707738D01*
X158195000Y-110243452D02*
X158314047Y-110302976D01*
X158552142Y-110302976D01*
X158671190Y-110243452D01*
X158730714Y-110124404D01*
X158730714Y-109648214D01*
X158671190Y-109529166D01*
X158552142Y-109469642D01*
X158314047Y-109469642D01*
X158195000Y-109529166D01*
X158135476Y-109648214D01*
X158135476Y-109767261D01*
X158730714Y-109886309D01*
X157659285Y-110243452D02*
X157540238Y-110302976D01*
X157302142Y-110302976D01*
X157183095Y-110243452D01*
X157123571Y-110124404D01*
X157123571Y-110064880D01*
X157183095Y-109945833D01*
X157302142Y-109886309D01*
X157480714Y-109886309D01*
X157599761Y-109826785D01*
X157659285Y-109707738D01*
X157659285Y-109648214D01*
X157599761Y-109529166D01*
X157480714Y-109469642D01*
X157302142Y-109469642D01*
X157183095Y-109529166D01*
X156111666Y-110243452D02*
X156230714Y-110302976D01*
X156468809Y-110302976D01*
X156587857Y-110243452D01*
X156647380Y-110124404D01*
X156647380Y-109648214D01*
X156587857Y-109529166D01*
X156468809Y-109469642D01*
X156230714Y-109469642D01*
X156111666Y-109529166D01*
X156052142Y-109648214D01*
X156052142Y-109767261D01*
X156647380Y-109886309D01*
X155695000Y-109469642D02*
X155218809Y-109469642D01*
X155516428Y-109052976D02*
X155516428Y-110124404D01*
X155456904Y-110243452D01*
X155337857Y-110302976D01*
X155218809Y-110302976D01*
X152956904Y-108993452D02*
X154028333Y-110600595D01*
X151587857Y-110302976D02*
X151587857Y-109052976D01*
X151111666Y-109052976D01*
X150992619Y-109112500D01*
X150933095Y-109172023D01*
X150873571Y-109291071D01*
X150873571Y-109469642D01*
X150933095Y-109588690D01*
X150992619Y-109648214D01*
X151111666Y-109707738D01*
X151587857Y-109707738D01*
X149921190Y-109648214D02*
X149742619Y-109707738D01*
X149683095Y-109767261D01*
X149623571Y-109886309D01*
X149623571Y-110064880D01*
X149683095Y-110183928D01*
X149742619Y-110243452D01*
X149861666Y-110302976D01*
X150337857Y-110302976D01*
X150337857Y-109052976D01*
X149921190Y-109052976D01*
X149802142Y-109112500D01*
X149742619Y-109172023D01*
X149683095Y-109291071D01*
X149683095Y-109410119D01*
X149742619Y-109529166D01*
X149802142Y-109588690D01*
X149921190Y-109648214D01*
X150337857Y-109648214D01*
X148492619Y-109052976D02*
X149087857Y-109052976D01*
X149147380Y-109648214D01*
X149087857Y-109588690D01*
X148968809Y-109529166D01*
X148671190Y-109529166D01*
X148552142Y-109588690D01*
X148492619Y-109648214D01*
X148433095Y-109767261D01*
X148433095Y-110064880D01*
X148492619Y-110183928D01*
X148552142Y-110243452D01*
X148671190Y-110302976D01*
X148968809Y-110302976D01*
X149087857Y-110243452D01*
X149147380Y-110183928D01*
X151587857Y-112477976D02*
X151587857Y-111227976D01*
X151111666Y-111227976D01*
X150992619Y-111287500D01*
X150933095Y-111347023D01*
X150873571Y-111466071D01*
X150873571Y-111644642D01*
X150933095Y-111763690D01*
X150992619Y-111823214D01*
X151111666Y-111882738D01*
X151587857Y-111882738D01*
X149921190Y-111823214D02*
X149742619Y-111882738D01*
X149683095Y-111942261D01*
X149623571Y-112061309D01*
X149623571Y-112239880D01*
X149683095Y-112358928D01*
X149742619Y-112418452D01*
X149861666Y-112477976D01*
X150337857Y-112477976D01*
X150337857Y-111227976D01*
X149921190Y-111227976D01*
X149802142Y-111287500D01*
X149742619Y-111347023D01*
X149683095Y-111466071D01*
X149683095Y-111585119D01*
X149742619Y-111704166D01*
X149802142Y-111763690D01*
X149921190Y-111823214D01*
X150337857Y-111823214D01*
X149206904Y-111227976D02*
X148433095Y-111227976D01*
X148849761Y-111704166D01*
X148671190Y-111704166D01*
X148552142Y-111763690D01*
X148492619Y-111823214D01*
X148433095Y-111942261D01*
X148433095Y-112239880D01*
X148492619Y-112358928D01*
X148552142Y-112418452D01*
X148671190Y-112477976D01*
X149028333Y-112477976D01*
X149147380Y-112418452D01*
X149206904Y-112358928D01*
X151587857Y-114652976D02*
X151587857Y-113402976D01*
X151111666Y-113402976D01*
X150992619Y-113462500D01*
X150933095Y-113522023D01*
X150873571Y-113641071D01*
X150873571Y-113819642D01*
X150933095Y-113938690D01*
X150992619Y-113998214D01*
X151111666Y-114057738D01*
X151587857Y-114057738D01*
X149921190Y-113998214D02*
X149742619Y-114057738D01*
X149683095Y-114117261D01*
X149623571Y-114236309D01*
X149623571Y-114414880D01*
X149683095Y-114533928D01*
X149742619Y-114593452D01*
X149861666Y-114652976D01*
X150337857Y-114652976D01*
X150337857Y-113402976D01*
X149921190Y-113402976D01*
X149802142Y-113462500D01*
X149742619Y-113522023D01*
X149683095Y-113641071D01*
X149683095Y-113760119D01*
X149742619Y-113879166D01*
X149802142Y-113938690D01*
X149921190Y-113998214D01*
X150337857Y-113998214D01*
X148552142Y-113819642D02*
X148552142Y-114652976D01*
X148849761Y-113343452D02*
X149147380Y-114236309D01*
X148373571Y-114236309D01*
X151052142Y-115637500D02*
X151171190Y-115577976D01*
X151349761Y-115577976D01*
X151528333Y-115637500D01*
X151647380Y-115756547D01*
X151706904Y-115875595D01*
X151766428Y-116113690D01*
X151766428Y-116292261D01*
X151706904Y-116530357D01*
X151647380Y-116649404D01*
X151528333Y-116768452D01*
X151349761Y-116827976D01*
X151230714Y-116827976D01*
X151052142Y-116768452D01*
X150992619Y-116708928D01*
X150992619Y-116292261D01*
X151230714Y-116292261D01*
X150456904Y-116827976D02*
X150456904Y-115577976D01*
X149742619Y-116827976D01*
X149742619Y-115577976D01*
X149147380Y-116827976D02*
X149147380Y-115577976D01*
X148849761Y-115577976D01*
X148671190Y-115637500D01*
X148552142Y-115756547D01*
X148492619Y-115875595D01*
X148433095Y-116113690D01*
X148433095Y-116292261D01*
X148492619Y-116530357D01*
X148552142Y-116649404D01*
X148671190Y-116768452D01*
X148849761Y-116827976D01*
X149147380Y-116827976D01*
X179269047Y-121588095D02*
X179269047Y-120288095D01*
X178711904Y-121526190D02*
X178526190Y-121588095D01*
X178216666Y-121588095D01*
X178092857Y-121526190D01*
X178030952Y-121464285D01*
X177969047Y-121340476D01*
X177969047Y-121216666D01*
X178030952Y-121092857D01*
X178092857Y-121030952D01*
X178216666Y-120969047D01*
X178464285Y-120907142D01*
X178588095Y-120845238D01*
X178650000Y-120783333D01*
X178711904Y-120659523D01*
X178711904Y-120535714D01*
X178650000Y-120411904D01*
X178588095Y-120350000D01*
X178464285Y-120288095D01*
X178154761Y-120288095D01*
X177969047Y-120350000D01*
X177411904Y-121588095D02*
X177411904Y-120288095D01*
X176916666Y-120288095D01*
X176792857Y-120350000D01*
X176730952Y-120411904D01*
X176669047Y-120535714D01*
X176669047Y-120721428D01*
X176730952Y-120845238D01*
X176792857Y-120907142D01*
X176916666Y-120969047D01*
X177411904Y-120969047D01*
X186178571Y-101357142D02*
X186178571Y-100642857D01*
X186892857Y-100571428D01*
X186821428Y-100642857D01*
X186750000Y-100785714D01*
X186750000Y-101142857D01*
X186821428Y-101285714D01*
X186892857Y-101357142D01*
X187035714Y-101428571D01*
X187392857Y-101428571D01*
X187535714Y-101357142D01*
X187607142Y-101285714D01*
X187678571Y-101142857D01*
X187678571Y-100785714D01*
X187607142Y-100642857D01*
X187535714Y-100571428D01*
X186678571Y-91285714D02*
X187678571Y-91285714D01*
X186107142Y-90928571D02*
X187178571Y-90571428D01*
X187178571Y-91500000D01*
X187678571Y-61428571D02*
X187678571Y-60571428D01*
X187678571Y-61000000D02*
X186178571Y-61000000D01*
X186392857Y-60857142D01*
X186535714Y-60714285D01*
X186607142Y-60571428D01*
X186178571Y-80500000D02*
X186178571Y-81428571D01*
X186750000Y-80928571D01*
X186750000Y-81142857D01*
X186821428Y-81285714D01*
X186892857Y-81357142D01*
X187035714Y-81428571D01*
X187392857Y-81428571D01*
X187535714Y-81357142D01*
X187607142Y-81285714D01*
X187678571Y-81142857D01*
X187678571Y-80714285D01*
X187607142Y-80571428D01*
X187535714Y-80500000D01*
X186178571Y-120500000D02*
X186178571Y-121500000D01*
X187678571Y-120857142D01*
X187678571Y-140714285D02*
X187678571Y-141000000D01*
X187607142Y-141142857D01*
X187535714Y-141214285D01*
X187321428Y-141357142D01*
X187035714Y-141428571D01*
X186464285Y-141428571D01*
X186321428Y-141357142D01*
X186250000Y-141285714D01*
X186178571Y-141142857D01*
X186178571Y-140857142D01*
X186250000Y-140714285D01*
X186321428Y-140642857D01*
X186464285Y-140571428D01*
X186821428Y-140571428D01*
X186964285Y-140642857D01*
X187035714Y-140714285D01*
X187107142Y-140857142D01*
X187107142Y-141142857D01*
X187035714Y-141285714D01*
X186964285Y-141357142D01*
X186821428Y-141428571D01*
X186821428Y-130857142D02*
X186750000Y-130714285D01*
X186678571Y-130642857D01*
X186535714Y-130571428D01*
X186464285Y-130571428D01*
X186321428Y-130642857D01*
X186250000Y-130714285D01*
X186178571Y-130857142D01*
X186178571Y-131142857D01*
X186250000Y-131285714D01*
X186321428Y-131357142D01*
X186464285Y-131428571D01*
X186535714Y-131428571D01*
X186678571Y-131357142D01*
X186750000Y-131285714D01*
X186821428Y-131142857D01*
X186821428Y-130857142D01*
X186892857Y-130714285D01*
X186964285Y-130642857D01*
X187107142Y-130571428D01*
X187392857Y-130571428D01*
X187535714Y-130642857D01*
X187607142Y-130714285D01*
X187678571Y-130857142D01*
X187678571Y-131142857D01*
X187607142Y-131285714D01*
X187535714Y-131357142D01*
X187392857Y-131428571D01*
X187107142Y-131428571D01*
X186964285Y-131357142D01*
X186892857Y-131285714D01*
X186821428Y-131142857D01*
X186321428Y-70571428D02*
X186250000Y-70642857D01*
X186178571Y-70785714D01*
X186178571Y-71142857D01*
X186250000Y-71285714D01*
X186321428Y-71357142D01*
X186464285Y-71428571D01*
X186607142Y-71428571D01*
X186821428Y-71357142D01*
X187678571Y-70500000D01*
X187678571Y-71428571D01*
X186178571Y-111285714D02*
X186178571Y-111000000D01*
X186250000Y-110857142D01*
X186321428Y-110785714D01*
X186535714Y-110642857D01*
X186821428Y-110571428D01*
X187392857Y-110571428D01*
X187535714Y-110642857D01*
X187607142Y-110714285D01*
X187678571Y-110857142D01*
X187678571Y-111142857D01*
X187607142Y-111285714D01*
X187535714Y-111357142D01*
X187392857Y-111428571D01*
X187035714Y-111428571D01*
X186892857Y-111357142D01*
X186821428Y-111285714D01*
X186750000Y-111142857D01*
X186750000Y-110857142D01*
X186821428Y-110714285D01*
X186892857Y-110642857D01*
X187035714Y-110571428D01*
D10*
X90500001Y-150000000D02*
G75*
G02X189500000Y-150000000I49499999J-550000000D01*
G01*
X189499999Y-50000000D02*
G75*
G02X90500000Y-50000000I-49500000J549999999D01*
G01*
D11*
X92321428Y-59285714D02*
X92321428Y-59000000D01*
X92392857Y-58857142D01*
X92464285Y-58785714D01*
X92678571Y-58642857D01*
X92964285Y-58571428D01*
X93535714Y-58571428D01*
X93678571Y-58642857D01*
X93750000Y-58714285D01*
X93821428Y-58857142D01*
X93821428Y-59142857D01*
X93750000Y-59285714D01*
X93678571Y-59357142D01*
X93535714Y-59428571D01*
X93178571Y-59428571D01*
X93035714Y-59357142D01*
X92964285Y-59285714D01*
X92892857Y-59142857D01*
X92892857Y-58857142D01*
X92964285Y-58714285D01*
X93035714Y-58642857D01*
X93178571Y-58571428D01*
X93178571Y-69142857D02*
X93250000Y-69285714D01*
X93321428Y-69357142D01*
X93464285Y-69428571D01*
X93535714Y-69428571D01*
X93678571Y-69357142D01*
X93750000Y-69285714D01*
X93821428Y-69142857D01*
X93821428Y-68857142D01*
X93750000Y-68714285D01*
X93678571Y-68642857D01*
X93535714Y-68571428D01*
X93464285Y-68571428D01*
X93321428Y-68642857D01*
X93250000Y-68714285D01*
X93178571Y-68857142D01*
X93178571Y-69142857D01*
X93107142Y-69285714D01*
X93035714Y-69357142D01*
X92892857Y-69428571D01*
X92607142Y-69428571D01*
X92464285Y-69357142D01*
X92392857Y-69285714D01*
X92321428Y-69142857D01*
X92321428Y-68857142D01*
X92392857Y-68714285D01*
X92464285Y-68642857D01*
X92607142Y-68571428D01*
X92892857Y-68571428D01*
X93035714Y-68642857D01*
X93107142Y-68714285D01*
X93178571Y-68857142D01*
X93821428Y-79500000D02*
X93821428Y-78500000D01*
X92321428Y-79142857D01*
X93821428Y-88714285D02*
X93821428Y-89000000D01*
X93750000Y-89142857D01*
X93678571Y-89214285D01*
X93464285Y-89357142D01*
X93178571Y-89428571D01*
X92607142Y-89428571D01*
X92464285Y-89357142D01*
X92392857Y-89285714D01*
X92321428Y-89142857D01*
X92321428Y-88857142D01*
X92392857Y-88714285D01*
X92464285Y-88642857D01*
X92607142Y-88571428D01*
X92964285Y-88571428D01*
X93107142Y-88642857D01*
X93178571Y-88714285D01*
X93250000Y-88857142D01*
X93250000Y-89142857D01*
X93178571Y-89285714D01*
X93107142Y-89357142D01*
X92964285Y-89428571D01*
X93821428Y-98642857D02*
X93821428Y-99357142D01*
X93107142Y-99428571D01*
X93178571Y-99357142D01*
X93250000Y-99214285D01*
X93250000Y-98857142D01*
X93178571Y-98714285D01*
X93107142Y-98642857D01*
X92964285Y-98571428D01*
X92607142Y-98571428D01*
X92464285Y-98642857D01*
X92392857Y-98714285D01*
X92321428Y-98857142D01*
X92321428Y-99214285D01*
X92392857Y-99357142D01*
X92464285Y-99428571D01*
X93321428Y-108714285D02*
X92321428Y-108714285D01*
X93892857Y-109071428D02*
X92821428Y-109428571D01*
X92821428Y-108500000D01*
X93821428Y-119500000D02*
X93821428Y-118571428D01*
X93250000Y-119071428D01*
X93250000Y-118857142D01*
X93178571Y-118714285D01*
X93107142Y-118642857D01*
X92964285Y-118571428D01*
X92607142Y-118571428D01*
X92464285Y-118642857D01*
X92392857Y-118714285D01*
X92321428Y-118857142D01*
X92321428Y-119285714D01*
X92392857Y-119428571D01*
X92464285Y-119500000D01*
X93678571Y-129428571D02*
X93750000Y-129357142D01*
X93821428Y-129214285D01*
X93821428Y-128857142D01*
X93750000Y-128714285D01*
X93678571Y-128642857D01*
X93535714Y-128571428D01*
X93392857Y-128571428D01*
X93178571Y-128642857D01*
X92321428Y-129500000D01*
X92321428Y-128571428D01*
X92321428Y-138571428D02*
X92321428Y-139428571D01*
X92321428Y-139000000D02*
X93821428Y-139000000D01*
X93607142Y-139142857D01*
X93464285Y-139285714D01*
X93392857Y-139428571D01*
D10*
X90000000Y-149500000D02*
X90000000Y-50500000D01*
X190000000Y-149500000D02*
X190000000Y-50500000D01*
D12*
X189900000Y-80000000D02*
X186900000Y-80000000D01*
D10*
X189900000Y-81000000D02*
X188900000Y-81000000D01*
X189900000Y-82000000D02*
X188900000Y-82000000D01*
X189900000Y-83000000D02*
X188900000Y-83000000D01*
X189900000Y-84000000D02*
X188900000Y-84000000D01*
D12*
X189900000Y-85000000D02*
X187900000Y-85000000D01*
D10*
X189900000Y-86000000D02*
X188900000Y-86000000D01*
X189900000Y-87000000D02*
X188900000Y-87000000D01*
X189900000Y-88000000D02*
X188900000Y-88000000D01*
X189900000Y-89000000D02*
X188900000Y-89000000D01*
D12*
X189900000Y-90000000D02*
X186900000Y-90000000D01*
X189900000Y-70000000D02*
X186900000Y-70000000D01*
D10*
X189900000Y-69000000D02*
X188900000Y-69000000D01*
X189900000Y-68000000D02*
X188900000Y-68000000D01*
X189900000Y-67000000D02*
X188900000Y-67000000D01*
X189900000Y-66000000D02*
X188900000Y-66000000D01*
D12*
X189900000Y-65000000D02*
X187900000Y-65000000D01*
D10*
X189900000Y-64000000D02*
X188900000Y-64000000D01*
X189900000Y-63000000D02*
X188900000Y-63000000D01*
X189900000Y-62000000D02*
X188900000Y-62000000D01*
X189900000Y-61000000D02*
X188900000Y-61000000D01*
D12*
X189900000Y-60000000D02*
X186900000Y-60000000D01*
X189900000Y-70000000D02*
X186900000Y-70000000D01*
D10*
X189900000Y-71000000D02*
X188900000Y-71000000D01*
X189900000Y-72000000D02*
X188900000Y-72000000D01*
X189900000Y-73000000D02*
X188900000Y-73000000D01*
X189900000Y-74000000D02*
X188900000Y-74000000D01*
D12*
X189900000Y-75000000D02*
X187900000Y-75000000D01*
D10*
X189900000Y-76000000D02*
X188900000Y-76000000D01*
X189900000Y-77000000D02*
X188900000Y-77000000D01*
X189900000Y-78000000D02*
X188900000Y-78000000D01*
X189900000Y-79000000D02*
X188900000Y-79000000D01*
D12*
X189900000Y-80000000D02*
X186900000Y-80000000D01*
X189900000Y-100000000D02*
X186900000Y-100000000D01*
D10*
X189900000Y-99000000D02*
X188900000Y-99000000D01*
X189900000Y-98000000D02*
X188900000Y-98000000D01*
X189900000Y-97000000D02*
X188900000Y-97000000D01*
X189900000Y-96000000D02*
X188900000Y-96000000D01*
D12*
X189900000Y-95000000D02*
X187900000Y-95000000D01*
D10*
X189900000Y-94000000D02*
X188900000Y-94000000D01*
X189900000Y-93000000D02*
X188900000Y-93000000D01*
X189900000Y-92000000D02*
X188900000Y-92000000D01*
X189900000Y-91000000D02*
X188900000Y-91000000D01*
D12*
X189900000Y-90000000D02*
X186900000Y-90000000D01*
X189900000Y-130000000D02*
X186900000Y-130000000D01*
D10*
X189900000Y-131000000D02*
X188900000Y-131000000D01*
X189900000Y-132000000D02*
X188900000Y-132000000D01*
X189900000Y-133000000D02*
X188900000Y-133000000D01*
X189900000Y-134000000D02*
X188900000Y-134000000D01*
D12*
X189900000Y-135000000D02*
X187900000Y-135000000D01*
D10*
X189900000Y-136000000D02*
X188900000Y-136000000D01*
X189900000Y-137000000D02*
X188900000Y-137000000D01*
X189900000Y-138000000D02*
X188900000Y-138000000D01*
X189900000Y-139000000D02*
X188900000Y-139000000D01*
D12*
X189900000Y-140000000D02*
X186900000Y-140000000D01*
X189900000Y-100000000D02*
X186900000Y-100000000D01*
D10*
X189900000Y-101000000D02*
X188900000Y-101000000D01*
X189900000Y-102000000D02*
X188900000Y-102000000D01*
X189900000Y-103000000D02*
X188900000Y-103000000D01*
X189900000Y-104000000D02*
X188900000Y-104000000D01*
D12*
X189900000Y-105000000D02*
X187900000Y-105000000D01*
D10*
X189900000Y-106000000D02*
X188900000Y-106000000D01*
X189900000Y-107000000D02*
X188900000Y-107000000D01*
X189900000Y-108000000D02*
X188900000Y-108000000D01*
X189900000Y-109000000D02*
X188900000Y-109000000D01*
D12*
X189900000Y-110000000D02*
X186900000Y-110000000D01*
X189900000Y-130000000D02*
X186900000Y-130000000D01*
D10*
X189900000Y-129000000D02*
X188900000Y-129000000D01*
X189900000Y-128000000D02*
X188900000Y-128000000D01*
X189900000Y-127000000D02*
X188900000Y-127000000D01*
X189900000Y-126000000D02*
X188900000Y-126000000D01*
D12*
X189900000Y-125000000D02*
X187900000Y-125000000D01*
D10*
X189900000Y-124000000D02*
X188900000Y-124000000D01*
X189900000Y-123000000D02*
X188900000Y-123000000D01*
X189900000Y-122000000D02*
X188900000Y-122000000D01*
X189900000Y-121000000D02*
X188900000Y-121000000D01*
D12*
X189900000Y-120000000D02*
X186900000Y-120000000D01*
X189900000Y-120000000D02*
X186900000Y-120000000D01*
D10*
X189900000Y-119000000D02*
X188900000Y-119000000D01*
X189900000Y-118000000D02*
X188900000Y-118000000D01*
X189900000Y-117000000D02*
X188900000Y-117000000D01*
X189900000Y-116000000D02*
X188900000Y-116000000D01*
D12*
X189900000Y-115000000D02*
X187900000Y-115000000D01*
D10*
X189900000Y-114000000D02*
X188900000Y-114000000D01*
X189900000Y-113000000D02*
X188900000Y-113000000D01*
X189900000Y-112000000D02*
X188900000Y-112000000D01*
X189900000Y-111000000D02*
X188900000Y-111000000D01*
D12*
X189900000Y-110000000D02*
X186900000Y-110000000D01*
X189900000Y-150000000D02*
X189900000Y-150000000D01*
X189900000Y-140000000D02*
X189900000Y-140000000D01*
D10*
X189900000Y-141000000D02*
X188900000Y-141000000D01*
X189900000Y-142000000D02*
X188900000Y-142000000D01*
X189900000Y-143000000D02*
X188900000Y-143000000D01*
X189900000Y-144000000D02*
X188900000Y-144000000D01*
D12*
X189900000Y-145000000D02*
X187900000Y-145000000D01*
D10*
X189900000Y-146000000D02*
X188900000Y-146000000D01*
X189900000Y-147000000D02*
X188900000Y-147000000D01*
X189900000Y-148000000D02*
X188900000Y-148000000D01*
X189900000Y-149000000D02*
X188900000Y-149000000D01*
X189900000Y-59000000D02*
X188900000Y-59000000D01*
X189900000Y-58000000D02*
X188900000Y-58000000D01*
X189900000Y-57000000D02*
X188900000Y-57000000D01*
X189900000Y-56000000D02*
X188900000Y-56000000D01*
D12*
X189900000Y-55000000D02*
X187900000Y-55000000D01*
D10*
X189900000Y-54000000D02*
X188900000Y-54000000D01*
X189900000Y-53000000D02*
X188900000Y-53000000D01*
X189900000Y-52000000D02*
X188900000Y-52000000D01*
X189900000Y-51000000D02*
X188900000Y-51000000D01*
D12*
X189900000Y-50000000D02*
X189900000Y-50000000D01*
X189900000Y-60000000D02*
X189900000Y-60000000D01*
D10*
X90100000Y-51000000D02*
X91100000Y-51000000D01*
X90100000Y-52000000D02*
X91100000Y-52000000D01*
X90100000Y-53000000D02*
X91100000Y-53000000D01*
X90100000Y-54000000D02*
X91100000Y-54000000D01*
D12*
X90100000Y-55000000D02*
X92100000Y-55000000D01*
D10*
X90100000Y-56000000D02*
X91100000Y-56000000D01*
X90100000Y-57000000D02*
X91100000Y-57000000D01*
X90100000Y-58000000D02*
X91100000Y-58000000D01*
X90100000Y-59000000D02*
X91100000Y-59000000D01*
D12*
X90100000Y-60000000D02*
X90100000Y-60000000D01*
X90100000Y-50000000D02*
X90100000Y-50000000D01*
X90100000Y-80000000D02*
X93100000Y-80000000D01*
D10*
X90100000Y-79000000D02*
X91100000Y-79000000D01*
X90100000Y-78000000D02*
X91100000Y-78000000D01*
X90100000Y-77000000D02*
X91100000Y-77000000D01*
X90100000Y-76000000D02*
X91100000Y-76000000D01*
D12*
X90100000Y-75000000D02*
X92100000Y-75000000D01*
D10*
X90100000Y-74000000D02*
X91100000Y-74000000D01*
X90100000Y-73000000D02*
X91100000Y-73000000D01*
X90100000Y-72000000D02*
X91100000Y-72000000D01*
X90100000Y-71000000D02*
X91100000Y-71000000D01*
D12*
X90100000Y-70000000D02*
X93100000Y-70000000D01*
X90100000Y-90000000D02*
X93100000Y-90000000D01*
D10*
X90100000Y-91000000D02*
X91100000Y-91000000D01*
X90100000Y-92000000D02*
X91100000Y-92000000D01*
X90100000Y-93000000D02*
X91100000Y-93000000D01*
X90100000Y-94000000D02*
X91100000Y-94000000D01*
D12*
X90100000Y-95000000D02*
X92100000Y-95000000D01*
D10*
X90100000Y-96000000D02*
X91100000Y-96000000D01*
X90100000Y-97000000D02*
X91100000Y-97000000D01*
X90100000Y-98000000D02*
X91100000Y-98000000D01*
X90100000Y-99000000D02*
X91100000Y-99000000D01*
D12*
X90100000Y-100000000D02*
X93100000Y-100000000D01*
X90100000Y-90000000D02*
X93100000Y-90000000D01*
D10*
X90100000Y-89000000D02*
X91100000Y-89000000D01*
X90100000Y-88000000D02*
X91100000Y-88000000D01*
X90100000Y-87000000D02*
X91100000Y-87000000D01*
X90100000Y-86000000D02*
X91100000Y-86000000D01*
D12*
X90100000Y-85000000D02*
X92100000Y-85000000D01*
D10*
X90100000Y-84000000D02*
X91100000Y-84000000D01*
X90100000Y-83000000D02*
X91100000Y-83000000D01*
X90100000Y-82000000D02*
X91100000Y-82000000D01*
X90100000Y-81000000D02*
X91100000Y-81000000D01*
D12*
X90100000Y-80000000D02*
X93100000Y-80000000D01*
X90100000Y-60000000D02*
X93100000Y-60000000D01*
D10*
X90100000Y-61000000D02*
X91100000Y-61000000D01*
X90100000Y-62000000D02*
X91100000Y-62000000D01*
X90100000Y-63000000D02*
X91100000Y-63000000D01*
X90100000Y-64000000D02*
X91100000Y-64000000D01*
D12*
X90100000Y-65000000D02*
X92100000Y-65000000D01*
D10*
X90100000Y-66000000D02*
X91100000Y-66000000D01*
X90100000Y-67000000D02*
X91100000Y-67000000D01*
X90100000Y-68000000D02*
X91100000Y-68000000D01*
X90100000Y-69000000D02*
X91100000Y-69000000D01*
D12*
X90100000Y-70000000D02*
X93100000Y-70000000D01*
X90100000Y-110000000D02*
X93100000Y-110000000D01*
D10*
X90100000Y-111000000D02*
X91100000Y-111000000D01*
X90100000Y-112000000D02*
X91100000Y-112000000D01*
X90100000Y-113000000D02*
X91100000Y-113000000D01*
X90100000Y-114000000D02*
X91100000Y-114000000D01*
D12*
X90100000Y-115000000D02*
X92100000Y-115000000D01*
D10*
X90100000Y-116000000D02*
X91100000Y-116000000D01*
X90100000Y-117000000D02*
X91100000Y-117000000D01*
X90100000Y-118000000D02*
X91100000Y-118000000D01*
X90100000Y-119000000D02*
X91100000Y-119000000D01*
D12*
X90100000Y-120000000D02*
X93100000Y-120000000D01*
X90100000Y-110000000D02*
X93100000Y-110000000D01*
D10*
X90100000Y-109000000D02*
X91100000Y-109000000D01*
X90100000Y-108000000D02*
X91100000Y-108000000D01*
X90100000Y-107000000D02*
X91100000Y-107000000D01*
X90100000Y-106000000D02*
X91100000Y-106000000D01*
D12*
X90100000Y-105000000D02*
X92100000Y-105000000D01*
D10*
X90100000Y-104000000D02*
X91100000Y-104000000D01*
X90100000Y-103000000D02*
X91100000Y-103000000D01*
X90100000Y-102000000D02*
X91100000Y-102000000D01*
X90100000Y-101000000D02*
X91100000Y-101000000D01*
D12*
X90100000Y-100000000D02*
X93100000Y-100000000D01*
X90100000Y-120000000D02*
X93100000Y-120000000D01*
D10*
X90100000Y-121000000D02*
X91100000Y-121000000D01*
X90100000Y-122000000D02*
X91100000Y-122000000D01*
X90100000Y-123000000D02*
X91100000Y-123000000D01*
X90100000Y-124000000D02*
X91100000Y-124000000D01*
D12*
X90100000Y-125000000D02*
X92100000Y-125000000D01*
D10*
X90100000Y-126000000D02*
X91100000Y-126000000D01*
X90100000Y-127000000D02*
X91100000Y-127000000D01*
X90100000Y-128000000D02*
X91100000Y-128000000D01*
X90100000Y-129000000D02*
X91100000Y-129000000D01*
D12*
X90100000Y-130000000D02*
X93100000Y-130000000D01*
X90100000Y-140000000D02*
X90100000Y-140000000D01*
X90100000Y-150000000D02*
X90100000Y-150000000D01*
D10*
X90100000Y-149000000D02*
X91100000Y-149000000D01*
X90100000Y-148000000D02*
X91100000Y-148000000D01*
X90100000Y-147000000D02*
X91100000Y-147000000D01*
X90100000Y-146000000D02*
X91100000Y-146000000D01*
D12*
X90100000Y-145000000D02*
X92100000Y-145000000D01*
D10*
X90100000Y-144000000D02*
X91100000Y-144000000D01*
X90100000Y-143000000D02*
X91100000Y-143000000D01*
X90100000Y-142000000D02*
X91100000Y-142000000D01*
X90100000Y-141000000D02*
X91100000Y-141000000D01*
D12*
X90100000Y-140000000D02*
X93100000Y-140000000D01*
D10*
X90100000Y-139000000D02*
X91100000Y-139000000D01*
X90100000Y-138000000D02*
X91100000Y-138000000D01*
X90100000Y-137000000D02*
X91100000Y-137000000D01*
X90100000Y-136000000D02*
X91100000Y-136000000D01*
D12*
X90100000Y-135000000D02*
X92100000Y-135000000D01*
D10*
X90100000Y-134000000D02*
X91100000Y-134000000D01*
X90100000Y-133000000D02*
X91100000Y-133000000D01*
X90100000Y-132000000D02*
X91100000Y-132000000D01*
X90100000Y-131000000D02*
X91100000Y-131000000D01*
D12*
X90100000Y-130000000D02*
X93100000Y-130000000D01*
X129000000Y-127000000D02*
X150000000Y-127000000D01*
X150000000Y-143000000D02*
X150000000Y-137500000D01*
X150000000Y-132500000D02*
X155000000Y-132500000D01*
X155000000Y-132500000D02*
X155000000Y-137500000D01*
X155000000Y-137500000D02*
X150000000Y-137500000D01*
X150000000Y-132500000D02*
X150000000Y-127000000D01*
X128000000Y-143000000D02*
X150000000Y-143000000D01*
X123000000Y-137500000D02*
X123000000Y-132500000D01*
X128000000Y-128000000D02*
X128000000Y-132500000D01*
X128000000Y-137500000D02*
X128000000Y-143000000D01*
X128000000Y-137500000D02*
X123000000Y-137500000D01*
X123000000Y-132500000D02*
X128000000Y-132500000D01*
X129000000Y-127000000D02*
X128000000Y-128000000D01*
D13*
X109100000Y-113750000D02*
G75*
G03X109100000Y-113750000I-6100000J0D01*
G01*
D10*
X174013113Y-113310000D02*
G75*
G03X174013113Y-113310000I-403113J0D01*
G01*
D14*
X181810000Y-113960000D02*
X174190000Y-113960000D01*
X174190000Y-119040000D02*
X181810000Y-119040000D01*
X181810000Y-119040000D02*
X181810000Y-113960000D01*
X174190000Y-113960000D02*
X174190000Y-119040000D01*
D13*
X129700000Y-117760000D02*
X130700000Y-117760000D01*
X130700000Y-116400000D02*
X129700000Y-116400000D01*
D10*
X142075000Y-110475000D02*
X143475000Y-110475000D01*
X142075000Y-115575000D02*
X137925000Y-115575000D01*
X142075000Y-110425000D02*
X137925000Y-110425000D01*
X142075000Y-115575000D02*
X142075000Y-115430000D01*
X137925000Y-115575000D02*
X137925000Y-115430000D01*
X137925000Y-110425000D02*
X137925000Y-110570000D01*
X142075000Y-110425000D02*
X142075000Y-110475000D01*
D12*
X144690000Y-108150000D02*
X144690000Y-118310000D01*
X144690000Y-118310000D02*
X147230000Y-118310000D01*
X147230000Y-118310000D02*
X147230000Y-108150000D01*
X147230000Y-108150000D02*
X144690000Y-108150000D01*
X132770000Y-118350000D02*
X135310000Y-118350000D01*
X132770000Y-108190000D02*
X132770000Y-118350000D01*
X135310000Y-108190000D02*
X132770000Y-108190000D01*
X135310000Y-118350000D02*
X135310000Y-108190000D01*
X165000000Y-114250000D02*
X165000000Y-116750000D01*
X164250000Y-117500000D02*
X161750000Y-117500000D01*
X161000000Y-116750000D02*
X161000000Y-114250000D01*
X161750000Y-113500000D02*
X164250000Y-113500000D01*
X161750000Y-113500000D02*
X161000000Y-114250000D01*
X164250000Y-113500000D02*
X165000000Y-114250000D01*
X165000000Y-116750000D02*
X164250000Y-117500000D01*
X161000000Y-116750000D02*
X161750000Y-117500000D01*
X162000000Y-115500000D02*
X164000000Y-115500000D01*
D10*
X174773000Y-114543000D02*
X174773000Y-115917000D01*
X176147000Y-115917000D01*
X176147000Y-114543000D01*
X174773000Y-114543000D01*
X176147000Y-117770000D02*
G75*
G03X176147000Y-117770000I-687000J0D01*
G01*
X178687000Y-115230000D02*
G75*
G03X178687000Y-115230000I-687000J0D01*
G01*
X178687000Y-117770000D02*
G75*
G03X178687000Y-117770000I-687000J0D01*
G01*
X181227000Y-115230000D02*
G75*
G03X181227000Y-115230000I-687000J0D01*
G01*
X181227000Y-117770000D02*
G75*
G03X181227000Y-117770000I-687000J0D01*
G01*
D11*
X128142857Y-134238095D02*
X128142857Y-135761904D01*
X128904761Y-135000000D02*
X127380952Y-135000000D01*
D10*
X104871428Y-116619047D02*
X104871428Y-117380952D01*
X105252380Y-117000000D02*
X104490476Y-117000000D01*
X130366666Y-118982380D02*
X130700000Y-118506190D01*
X130938095Y-118982380D02*
X130938095Y-117982380D01*
X130557142Y-117982380D01*
X130461904Y-118030000D01*
X130414285Y-118077619D01*
X130366666Y-118172857D01*
X130366666Y-118315714D01*
X130414285Y-118410952D01*
X130461904Y-118458571D01*
X130557142Y-118506190D01*
X130938095Y-118506190D01*
X129414285Y-118982380D02*
X129985714Y-118982380D01*
X129700000Y-118982380D02*
X129700000Y-117982380D01*
X129795238Y-118125238D01*
X129890476Y-118220476D01*
X129985714Y-118268095D01*
X140761904Y-108952380D02*
X140761904Y-109761904D01*
X140714285Y-109857142D01*
X140666666Y-109904761D01*
X140571428Y-109952380D01*
X140380952Y-109952380D01*
X140285714Y-109904761D01*
X140238095Y-109857142D01*
X140190476Y-109761904D01*
X140190476Y-108952380D01*
X139190476Y-109952380D02*
X139761904Y-109952380D01*
X139476190Y-109952380D02*
X139476190Y-108952380D01*
X139571428Y-109095238D01*
X139666666Y-109190476D01*
X139761904Y-109238095D01*
X164333333Y-112404761D02*
X164190476Y-112452380D01*
X163952380Y-112452380D01*
X163857142Y-112404761D01*
X163809523Y-112357142D01*
X163761904Y-112261904D01*
X163761904Y-112166666D01*
X163809523Y-112071428D01*
X163857142Y-112023809D01*
X163952380Y-111976190D01*
X164142857Y-111928571D01*
X164238095Y-111880952D01*
X164285714Y-111833333D01*
X164333333Y-111738095D01*
X164333333Y-111642857D01*
X164285714Y-111547619D01*
X164238095Y-111500000D01*
X164142857Y-111452380D01*
X163904761Y-111452380D01*
X163761904Y-111500000D01*
X163428571Y-111452380D02*
X163190476Y-112452380D01*
X163000000Y-111738095D01*
X162809523Y-112452380D01*
X162571428Y-111452380D01*
X161761904Y-111785714D02*
X161761904Y-112452380D01*
X162000000Y-111404761D02*
X162238095Y-112119047D01*
X161619047Y-112119047D01*
M02*
