%TF.GenerationSoftware,KiCad,Pcbnew,5.0.0*%
%TF.CreationDate,2018-09-20T16:03:51+02:00*%
%TF.ProjectId,adri,616472692E6B696361645F7063620000,rev?*%
%TF.SameCoordinates,Original*%
%TF.FileFunction,Copper,L1,Top,Signal*%
%TF.FilePolarity,Positive*%
%FSLAX46Y46*%
G04 Gerber Fmt 4.6, Leading zero omitted, Abs format (unit mm)*
G04 Created by KiCad (PCBNEW 5.0.0) date Thu Sep 20 16:03:51 2018*
%MOMM*%
%LPD*%
G01*
G04 APERTURE LIST*
%ADD10C,0.150000*%
%ADD11C,1.600000*%
%ADD12R,1.600000X1.600000*%
%ADD13R,1.000000X1.600000*%
%ADD14R,1.524000X1.524000*%
%ADD15C,1.524000*%
%ADD16R,2.500000X1.000000*%
%ADD17C,0.800000*%
%ADD18C,4.000000*%
%ADD19C,0.250000*%
%ADD20C,0.254000*%
G04 APERTURE END LIST*
D10*
X90500000Y-150000000D02*
G75*
G02X90000000Y-149500000I0J500000D01*
G01*
X190000000Y-149500000D02*
G75*
G02X189500000Y-150000000I-500000J0D01*
G01*
X189500000Y-50000000D02*
G75*
G02X190000000Y-50500000I0J-500000D01*
G01*
X90000000Y-50500000D02*
G75*
G02X90500000Y-50000000I500000J0D01*
G01*
X90500001Y-150000000D02*
G75*
G02X189500000Y-150000000I49499999J-550000000D01*
G01*
X189499999Y-50000000D02*
G75*
G02X90500000Y-50000000I-49500000J549999999D01*
G01*
X90000000Y-149500000D02*
X90000000Y-50500000D01*
X190000000Y-149500000D02*
X190000000Y-50500000D01*
D11*
X103000000Y-110500000D03*
D12*
X103000000Y-117000000D03*
D13*
X179600000Y-78500000D03*
X176400000Y-78500000D03*
X179600000Y-83500000D03*
X176400000Y-83500000D03*
D14*
X175460000Y-115230000D03*
D15*
X175460000Y-117770000D03*
X178000000Y-115230000D03*
X178000000Y-117770000D03*
X180540000Y-115230000D03*
X180540000Y-117770000D03*
D16*
X180000000Y-91500000D03*
X176000000Y-91500000D03*
X180000000Y-88500000D03*
X176000000Y-88500000D03*
X176000000Y-108500000D03*
X180000000Y-108500000D03*
X176000000Y-111500000D03*
X180000000Y-111500000D03*
X180000000Y-101500000D03*
X176000000Y-101500000D03*
X180000000Y-98500000D03*
X176000000Y-98500000D03*
D17*
X179600000Y-78500000D03*
D18*
X185000000Y-145000000D03*
D17*
X176000000Y-111500000D03*
D18*
X95000000Y-145000000D03*
X95000000Y-55000000D03*
X185000000Y-55000000D03*
D17*
X179600000Y-83500000D03*
X180000000Y-88500000D03*
X176000000Y-88500000D03*
X176000000Y-98500000D03*
X176000000Y-108500000D03*
D19*
X176000000Y-88500000D02*
X180000000Y-88500000D01*
X176000000Y-98500000D02*
X180000000Y-98500000D01*
X176000000Y-108500000D02*
X180000000Y-108500000D01*
D20*
G36*
X189290000Y-149269154D02*
X185859357Y-148972028D01*
X185855358Y-148971713D01*
X185851418Y-148971385D01*
X177201708Y-148319912D01*
X177190581Y-148319162D01*
X168531704Y-147803632D01*
X168520567Y-147803057D01*
X159854668Y-147423599D01*
X159854662Y-147423599D01*
X159843516Y-147423198D01*
X151172719Y-147179905D01*
X151167144Y-147179793D01*
X151161569Y-147179680D01*
X142488020Y-147072612D01*
X142476867Y-147072562D01*
X133802707Y-147101745D01*
X133791556Y-147101870D01*
X125118923Y-147267298D01*
X125107775Y-147267598D01*
X116438811Y-147569229D01*
X116428125Y-147569686D01*
X116427668Y-147569705D01*
X107764518Y-148007464D01*
X107764512Y-148007464D01*
X107753379Y-148008114D01*
X99098167Y-148581895D01*
X99087045Y-148582720D01*
X90710000Y-149270373D01*
X90710000Y-116200000D01*
X101552560Y-116200000D01*
X101552560Y-117800000D01*
X101601843Y-118047765D01*
X101742191Y-118257809D01*
X101952235Y-118398157D01*
X102200000Y-118447440D01*
X103800000Y-118447440D01*
X104047765Y-118398157D01*
X104257809Y-118257809D01*
X104398157Y-118047765D01*
X104447440Y-117800000D01*
X104447440Y-116200000D01*
X104398157Y-115952235D01*
X104257809Y-115742191D01*
X104047765Y-115601843D01*
X103800000Y-115552560D01*
X102200000Y-115552560D01*
X101952235Y-115601843D01*
X101742191Y-115742191D01*
X101601843Y-115952235D01*
X101552560Y-116200000D01*
X90710000Y-116200000D01*
X90710000Y-114468000D01*
X174050560Y-114468000D01*
X174050560Y-115992000D01*
X174099843Y-116239765D01*
X174240191Y-116449809D01*
X174450235Y-116590157D01*
X174628690Y-116625653D01*
X174275680Y-116978663D01*
X174063000Y-117492119D01*
X174063000Y-118047881D01*
X174275680Y-118561337D01*
X174668663Y-118954320D01*
X175182119Y-119167000D01*
X175737881Y-119167000D01*
X176251337Y-118954320D01*
X176644320Y-118561337D01*
X176730000Y-118354487D01*
X176815680Y-118561337D01*
X177208663Y-118954320D01*
X177722119Y-119167000D01*
X178277881Y-119167000D01*
X178791337Y-118954320D01*
X178995444Y-118750213D01*
X179739392Y-118750213D01*
X179808857Y-118992397D01*
X180332302Y-119179144D01*
X180887368Y-119151362D01*
X181271143Y-118992397D01*
X181340608Y-118750213D01*
X180540000Y-117949605D01*
X179739392Y-118750213D01*
X178995444Y-118750213D01*
X179184320Y-118561337D01*
X179263428Y-118370353D01*
X179317603Y-118501143D01*
X179559787Y-118570608D01*
X180360395Y-117770000D01*
X180719605Y-117770000D01*
X181520213Y-118570608D01*
X181762397Y-118501143D01*
X181949144Y-117977698D01*
X181921362Y-117422632D01*
X181762397Y-117038857D01*
X181520213Y-116969392D01*
X180719605Y-117770000D01*
X180360395Y-117770000D01*
X179559787Y-116969392D01*
X179317603Y-117038857D01*
X179267465Y-117179393D01*
X179184320Y-116978663D01*
X178791337Y-116585680D01*
X178584487Y-116500000D01*
X178791337Y-116414320D01*
X179184320Y-116021337D01*
X179270000Y-115814487D01*
X179355680Y-116021337D01*
X179748663Y-116414320D01*
X179939647Y-116493428D01*
X179808857Y-116547603D01*
X179739392Y-116789787D01*
X180540000Y-117590395D01*
X181340608Y-116789787D01*
X181271143Y-116547603D01*
X181130607Y-116497465D01*
X181331337Y-116414320D01*
X181724320Y-116021337D01*
X181937000Y-115507881D01*
X181937000Y-114952119D01*
X181724320Y-114438663D01*
X181331337Y-114045680D01*
X180817881Y-113833000D01*
X180262119Y-113833000D01*
X179748663Y-114045680D01*
X179355680Y-114438663D01*
X179270000Y-114645513D01*
X179184320Y-114438663D01*
X178791337Y-114045680D01*
X178277881Y-113833000D01*
X177722119Y-113833000D01*
X177208663Y-114045680D01*
X176855653Y-114398690D01*
X176820157Y-114220235D01*
X176679809Y-114010191D01*
X176469765Y-113869843D01*
X176222000Y-113820560D01*
X174698000Y-113820560D01*
X174450235Y-113869843D01*
X174240191Y-114010191D01*
X174099843Y-114220235D01*
X174050560Y-114468000D01*
X90710000Y-114468000D01*
X90710000Y-111507745D01*
X102171861Y-111507745D01*
X102245995Y-111753864D01*
X102783223Y-111946965D01*
X103353454Y-111919778D01*
X103677025Y-111785750D01*
X174115000Y-111785750D01*
X174115000Y-112126310D01*
X174211673Y-112359699D01*
X174390302Y-112538327D01*
X174623691Y-112635000D01*
X175714250Y-112635000D01*
X175873000Y-112476250D01*
X175873000Y-111627000D01*
X176127000Y-111627000D01*
X176127000Y-112476250D01*
X176285750Y-112635000D01*
X177376309Y-112635000D01*
X177609698Y-112538327D01*
X177788327Y-112359699D01*
X177885000Y-112126310D01*
X177885000Y-111785750D01*
X178115000Y-111785750D01*
X178115000Y-112126310D01*
X178211673Y-112359699D01*
X178390302Y-112538327D01*
X178623691Y-112635000D01*
X179714250Y-112635000D01*
X179873000Y-112476250D01*
X179873000Y-111627000D01*
X180127000Y-111627000D01*
X180127000Y-112476250D01*
X180285750Y-112635000D01*
X181376309Y-112635000D01*
X181609698Y-112538327D01*
X181788327Y-112359699D01*
X181885000Y-112126310D01*
X181885000Y-111785750D01*
X181726250Y-111627000D01*
X180127000Y-111627000D01*
X179873000Y-111627000D01*
X178273750Y-111627000D01*
X178115000Y-111785750D01*
X177885000Y-111785750D01*
X177726250Y-111627000D01*
X176127000Y-111627000D01*
X175873000Y-111627000D01*
X174273750Y-111627000D01*
X174115000Y-111785750D01*
X103677025Y-111785750D01*
X103754005Y-111753864D01*
X103828139Y-111507745D01*
X103000000Y-110679605D01*
X102171861Y-111507745D01*
X90710000Y-111507745D01*
X90710000Y-110283223D01*
X101553035Y-110283223D01*
X101580222Y-110853454D01*
X101746136Y-111254005D01*
X101992255Y-111328139D01*
X102820395Y-110500000D01*
X103179605Y-110500000D01*
X104007745Y-111328139D01*
X104253864Y-111254005D01*
X104390564Y-110873690D01*
X174115000Y-110873690D01*
X174115000Y-111214250D01*
X174273750Y-111373000D01*
X175873000Y-111373000D01*
X175873000Y-110523750D01*
X176127000Y-110523750D01*
X176127000Y-111373000D01*
X177726250Y-111373000D01*
X177885000Y-111214250D01*
X177885000Y-110873690D01*
X178115000Y-110873690D01*
X178115000Y-111214250D01*
X178273750Y-111373000D01*
X179873000Y-111373000D01*
X179873000Y-110523750D01*
X180127000Y-110523750D01*
X180127000Y-111373000D01*
X181726250Y-111373000D01*
X181885000Y-111214250D01*
X181885000Y-110873690D01*
X181788327Y-110640301D01*
X181609698Y-110461673D01*
X181376309Y-110365000D01*
X180285750Y-110365000D01*
X180127000Y-110523750D01*
X179873000Y-110523750D01*
X179714250Y-110365000D01*
X178623691Y-110365000D01*
X178390302Y-110461673D01*
X178211673Y-110640301D01*
X178115000Y-110873690D01*
X177885000Y-110873690D01*
X177788327Y-110640301D01*
X177609698Y-110461673D01*
X177376309Y-110365000D01*
X176285750Y-110365000D01*
X176127000Y-110523750D01*
X175873000Y-110523750D01*
X175714250Y-110365000D01*
X174623691Y-110365000D01*
X174390302Y-110461673D01*
X174211673Y-110640301D01*
X174115000Y-110873690D01*
X104390564Y-110873690D01*
X104446965Y-110716777D01*
X104419778Y-110146546D01*
X104253864Y-109745995D01*
X104007745Y-109671861D01*
X103179605Y-110500000D01*
X102820395Y-110500000D01*
X101992255Y-109671861D01*
X101746136Y-109745995D01*
X101553035Y-110283223D01*
X90710000Y-110283223D01*
X90710000Y-109492255D01*
X102171861Y-109492255D01*
X103000000Y-110320395D01*
X103828139Y-109492255D01*
X103754005Y-109246136D01*
X103216777Y-109053035D01*
X102646546Y-109080222D01*
X102245995Y-109246136D01*
X102171861Y-109492255D01*
X90710000Y-109492255D01*
X90710000Y-108000000D01*
X174102560Y-108000000D01*
X174102560Y-109000000D01*
X174151843Y-109247765D01*
X174292191Y-109457809D01*
X174502235Y-109598157D01*
X174750000Y-109647440D01*
X177250000Y-109647440D01*
X177497765Y-109598157D01*
X177707809Y-109457809D01*
X177839982Y-109260000D01*
X178160018Y-109260000D01*
X178292191Y-109457809D01*
X178502235Y-109598157D01*
X178750000Y-109647440D01*
X181250000Y-109647440D01*
X181497765Y-109598157D01*
X181707809Y-109457809D01*
X181848157Y-109247765D01*
X181897440Y-109000000D01*
X181897440Y-108000000D01*
X181848157Y-107752235D01*
X181707809Y-107542191D01*
X181497765Y-107401843D01*
X181250000Y-107352560D01*
X178750000Y-107352560D01*
X178502235Y-107401843D01*
X178292191Y-107542191D01*
X178160018Y-107740000D01*
X177839982Y-107740000D01*
X177707809Y-107542191D01*
X177497765Y-107401843D01*
X177250000Y-107352560D01*
X174750000Y-107352560D01*
X174502235Y-107401843D01*
X174292191Y-107542191D01*
X174151843Y-107752235D01*
X174102560Y-108000000D01*
X90710000Y-108000000D01*
X90710000Y-101785750D01*
X174115000Y-101785750D01*
X174115000Y-102126310D01*
X174211673Y-102359699D01*
X174390302Y-102538327D01*
X174623691Y-102635000D01*
X175714250Y-102635000D01*
X175873000Y-102476250D01*
X175873000Y-101627000D01*
X176127000Y-101627000D01*
X176127000Y-102476250D01*
X176285750Y-102635000D01*
X177376309Y-102635000D01*
X177609698Y-102538327D01*
X177788327Y-102359699D01*
X177885000Y-102126310D01*
X177885000Y-101785750D01*
X178115000Y-101785750D01*
X178115000Y-102126310D01*
X178211673Y-102359699D01*
X178390302Y-102538327D01*
X178623691Y-102635000D01*
X179714250Y-102635000D01*
X179873000Y-102476250D01*
X179873000Y-101627000D01*
X180127000Y-101627000D01*
X180127000Y-102476250D01*
X180285750Y-102635000D01*
X181376309Y-102635000D01*
X181609698Y-102538327D01*
X181788327Y-102359699D01*
X181885000Y-102126310D01*
X181885000Y-101785750D01*
X181726250Y-101627000D01*
X180127000Y-101627000D01*
X179873000Y-101627000D01*
X178273750Y-101627000D01*
X178115000Y-101785750D01*
X177885000Y-101785750D01*
X177726250Y-101627000D01*
X176127000Y-101627000D01*
X175873000Y-101627000D01*
X174273750Y-101627000D01*
X174115000Y-101785750D01*
X90710000Y-101785750D01*
X90710000Y-100873690D01*
X174115000Y-100873690D01*
X174115000Y-101214250D01*
X174273750Y-101373000D01*
X175873000Y-101373000D01*
X175873000Y-100523750D01*
X176127000Y-100523750D01*
X176127000Y-101373000D01*
X177726250Y-101373000D01*
X177885000Y-101214250D01*
X177885000Y-100873690D01*
X178115000Y-100873690D01*
X178115000Y-101214250D01*
X178273750Y-101373000D01*
X179873000Y-101373000D01*
X179873000Y-100523750D01*
X180127000Y-100523750D01*
X180127000Y-101373000D01*
X181726250Y-101373000D01*
X181885000Y-101214250D01*
X181885000Y-100873690D01*
X181788327Y-100640301D01*
X181609698Y-100461673D01*
X181376309Y-100365000D01*
X180285750Y-100365000D01*
X180127000Y-100523750D01*
X179873000Y-100523750D01*
X179714250Y-100365000D01*
X178623691Y-100365000D01*
X178390302Y-100461673D01*
X178211673Y-100640301D01*
X178115000Y-100873690D01*
X177885000Y-100873690D01*
X177788327Y-100640301D01*
X177609698Y-100461673D01*
X177376309Y-100365000D01*
X176285750Y-100365000D01*
X176127000Y-100523750D01*
X175873000Y-100523750D01*
X175714250Y-100365000D01*
X174623691Y-100365000D01*
X174390302Y-100461673D01*
X174211673Y-100640301D01*
X174115000Y-100873690D01*
X90710000Y-100873690D01*
X90710000Y-98000000D01*
X174102560Y-98000000D01*
X174102560Y-99000000D01*
X174151843Y-99247765D01*
X174292191Y-99457809D01*
X174502235Y-99598157D01*
X174750000Y-99647440D01*
X177250000Y-99647440D01*
X177497765Y-99598157D01*
X177707809Y-99457809D01*
X177839982Y-99260000D01*
X178160018Y-99260000D01*
X178292191Y-99457809D01*
X178502235Y-99598157D01*
X178750000Y-99647440D01*
X181250000Y-99647440D01*
X181497765Y-99598157D01*
X181707809Y-99457809D01*
X181848157Y-99247765D01*
X181897440Y-99000000D01*
X181897440Y-98000000D01*
X181848157Y-97752235D01*
X181707809Y-97542191D01*
X181497765Y-97401843D01*
X181250000Y-97352560D01*
X178750000Y-97352560D01*
X178502235Y-97401843D01*
X178292191Y-97542191D01*
X178160018Y-97740000D01*
X177839982Y-97740000D01*
X177707809Y-97542191D01*
X177497765Y-97401843D01*
X177250000Y-97352560D01*
X174750000Y-97352560D01*
X174502235Y-97401843D01*
X174292191Y-97542191D01*
X174151843Y-97752235D01*
X174102560Y-98000000D01*
X90710000Y-98000000D01*
X90710000Y-91785750D01*
X174115000Y-91785750D01*
X174115000Y-92126310D01*
X174211673Y-92359699D01*
X174390302Y-92538327D01*
X174623691Y-92635000D01*
X175714250Y-92635000D01*
X175873000Y-92476250D01*
X175873000Y-91627000D01*
X176127000Y-91627000D01*
X176127000Y-92476250D01*
X176285750Y-92635000D01*
X177376309Y-92635000D01*
X177609698Y-92538327D01*
X177788327Y-92359699D01*
X177885000Y-92126310D01*
X177885000Y-91785750D01*
X178115000Y-91785750D01*
X178115000Y-92126310D01*
X178211673Y-92359699D01*
X178390302Y-92538327D01*
X178623691Y-92635000D01*
X179714250Y-92635000D01*
X179873000Y-92476250D01*
X179873000Y-91627000D01*
X180127000Y-91627000D01*
X180127000Y-92476250D01*
X180285750Y-92635000D01*
X181376309Y-92635000D01*
X181609698Y-92538327D01*
X181788327Y-92359699D01*
X181885000Y-92126310D01*
X181885000Y-91785750D01*
X181726250Y-91627000D01*
X180127000Y-91627000D01*
X179873000Y-91627000D01*
X178273750Y-91627000D01*
X178115000Y-91785750D01*
X177885000Y-91785750D01*
X177726250Y-91627000D01*
X176127000Y-91627000D01*
X175873000Y-91627000D01*
X174273750Y-91627000D01*
X174115000Y-91785750D01*
X90710000Y-91785750D01*
X90710000Y-90873690D01*
X174115000Y-90873690D01*
X174115000Y-91214250D01*
X174273750Y-91373000D01*
X175873000Y-91373000D01*
X175873000Y-90523750D01*
X176127000Y-90523750D01*
X176127000Y-91373000D01*
X177726250Y-91373000D01*
X177885000Y-91214250D01*
X177885000Y-90873690D01*
X178115000Y-90873690D01*
X178115000Y-91214250D01*
X178273750Y-91373000D01*
X179873000Y-91373000D01*
X179873000Y-90523750D01*
X180127000Y-90523750D01*
X180127000Y-91373000D01*
X181726250Y-91373000D01*
X181885000Y-91214250D01*
X181885000Y-90873690D01*
X181788327Y-90640301D01*
X181609698Y-90461673D01*
X181376309Y-90365000D01*
X180285750Y-90365000D01*
X180127000Y-90523750D01*
X179873000Y-90523750D01*
X179714250Y-90365000D01*
X178623691Y-90365000D01*
X178390302Y-90461673D01*
X178211673Y-90640301D01*
X178115000Y-90873690D01*
X177885000Y-90873690D01*
X177788327Y-90640301D01*
X177609698Y-90461673D01*
X177376309Y-90365000D01*
X176285750Y-90365000D01*
X176127000Y-90523750D01*
X175873000Y-90523750D01*
X175714250Y-90365000D01*
X174623691Y-90365000D01*
X174390302Y-90461673D01*
X174211673Y-90640301D01*
X174115000Y-90873690D01*
X90710000Y-90873690D01*
X90710000Y-88000000D01*
X174102560Y-88000000D01*
X174102560Y-89000000D01*
X174151843Y-89247765D01*
X174292191Y-89457809D01*
X174502235Y-89598157D01*
X174750000Y-89647440D01*
X177250000Y-89647440D01*
X177497765Y-89598157D01*
X177707809Y-89457809D01*
X177839982Y-89260000D01*
X178160018Y-89260000D01*
X178292191Y-89457809D01*
X178502235Y-89598157D01*
X178750000Y-89647440D01*
X181250000Y-89647440D01*
X181497765Y-89598157D01*
X181707809Y-89457809D01*
X181848157Y-89247765D01*
X181897440Y-89000000D01*
X181897440Y-88000000D01*
X181848157Y-87752235D01*
X181707809Y-87542191D01*
X181497765Y-87401843D01*
X181250000Y-87352560D01*
X178750000Y-87352560D01*
X178502235Y-87401843D01*
X178292191Y-87542191D01*
X178160018Y-87740000D01*
X177839982Y-87740000D01*
X177707809Y-87542191D01*
X177497765Y-87401843D01*
X177250000Y-87352560D01*
X174750000Y-87352560D01*
X174502235Y-87401843D01*
X174292191Y-87542191D01*
X174151843Y-87752235D01*
X174102560Y-88000000D01*
X90710000Y-88000000D01*
X90710000Y-83785750D01*
X175265000Y-83785750D01*
X175265000Y-84426309D01*
X175361673Y-84659698D01*
X175540301Y-84838327D01*
X175773690Y-84935000D01*
X176114250Y-84935000D01*
X176273000Y-84776250D01*
X176273000Y-83627000D01*
X176527000Y-83627000D01*
X176527000Y-84776250D01*
X176685750Y-84935000D01*
X177026310Y-84935000D01*
X177259699Y-84838327D01*
X177438327Y-84659698D01*
X177535000Y-84426309D01*
X177535000Y-83785750D01*
X177376250Y-83627000D01*
X176527000Y-83627000D01*
X176273000Y-83627000D01*
X175423750Y-83627000D01*
X175265000Y-83785750D01*
X90710000Y-83785750D01*
X90710000Y-82573691D01*
X175265000Y-82573691D01*
X175265000Y-83214250D01*
X175423750Y-83373000D01*
X176273000Y-83373000D01*
X176273000Y-82223750D01*
X176527000Y-82223750D01*
X176527000Y-83373000D01*
X177376250Y-83373000D01*
X177535000Y-83214250D01*
X177535000Y-82700000D01*
X178452560Y-82700000D01*
X178452560Y-84300000D01*
X178501843Y-84547765D01*
X178642191Y-84757809D01*
X178852235Y-84898157D01*
X179100000Y-84947440D01*
X180100000Y-84947440D01*
X180347765Y-84898157D01*
X180557809Y-84757809D01*
X180698157Y-84547765D01*
X180747440Y-84300000D01*
X180747440Y-82700000D01*
X180698157Y-82452235D01*
X180557809Y-82242191D01*
X180347765Y-82101843D01*
X180100000Y-82052560D01*
X179100000Y-82052560D01*
X178852235Y-82101843D01*
X178642191Y-82242191D01*
X178501843Y-82452235D01*
X178452560Y-82700000D01*
X177535000Y-82700000D01*
X177535000Y-82573691D01*
X177438327Y-82340302D01*
X177259699Y-82161673D01*
X177026310Y-82065000D01*
X176685750Y-82065000D01*
X176527000Y-82223750D01*
X176273000Y-82223750D01*
X176114250Y-82065000D01*
X175773690Y-82065000D01*
X175540301Y-82161673D01*
X175361673Y-82340302D01*
X175265000Y-82573691D01*
X90710000Y-82573691D01*
X90710000Y-77700000D01*
X175252560Y-77700000D01*
X175252560Y-79300000D01*
X175301843Y-79547765D01*
X175442191Y-79757809D01*
X175652235Y-79898157D01*
X175900000Y-79947440D01*
X176900000Y-79947440D01*
X177147765Y-79898157D01*
X177357809Y-79757809D01*
X177498157Y-79547765D01*
X177547440Y-79300000D01*
X177547440Y-77700000D01*
X178452560Y-77700000D01*
X178452560Y-79300000D01*
X178501843Y-79547765D01*
X178642191Y-79757809D01*
X178852235Y-79898157D01*
X179100000Y-79947440D01*
X180100000Y-79947440D01*
X180347765Y-79898157D01*
X180557809Y-79757809D01*
X180698157Y-79547765D01*
X180747440Y-79300000D01*
X180747440Y-77700000D01*
X180698157Y-77452235D01*
X180557809Y-77242191D01*
X180347765Y-77101843D01*
X180100000Y-77052560D01*
X179100000Y-77052560D01*
X178852235Y-77101843D01*
X178642191Y-77242191D01*
X178501843Y-77452235D01*
X178452560Y-77700000D01*
X177547440Y-77700000D01*
X177498157Y-77452235D01*
X177357809Y-77242191D01*
X177147765Y-77101843D01*
X176900000Y-77052560D01*
X175900000Y-77052560D01*
X175652235Y-77101843D01*
X175442191Y-77242191D01*
X175301843Y-77452235D01*
X175252560Y-77700000D01*
X90710000Y-77700000D01*
X90710000Y-50730846D01*
X94140642Y-51027972D01*
X94144659Y-51028288D01*
X94148582Y-51028615D01*
X102798292Y-51680088D01*
X102809419Y-51680838D01*
X111468296Y-52196368D01*
X111479433Y-52196943D01*
X111479439Y-52196943D01*
X120145339Y-52576401D01*
X120156484Y-52576802D01*
X128827281Y-52820095D01*
X128838210Y-52820316D01*
X128838431Y-52820320D01*
X137511980Y-52927388D01*
X137523133Y-52927438D01*
X146197293Y-52898255D01*
X146208445Y-52898130D01*
X154881077Y-52732702D01*
X154892225Y-52732402D01*
X163561189Y-52430772D01*
X163572331Y-52430296D01*
X172235482Y-51992536D01*
X172235488Y-51992536D01*
X172246621Y-51991886D01*
X180901833Y-51418105D01*
X180912955Y-51417280D01*
X189290001Y-50729627D01*
X189290000Y-149269154D01*
X189290000Y-149269154D01*
G37*
X189290000Y-149269154D02*
X185859357Y-148972028D01*
X185855358Y-148971713D01*
X185851418Y-148971385D01*
X177201708Y-148319912D01*
X177190581Y-148319162D01*
X168531704Y-147803632D01*
X168520567Y-147803057D01*
X159854668Y-147423599D01*
X159854662Y-147423599D01*
X159843516Y-147423198D01*
X151172719Y-147179905D01*
X151167144Y-147179793D01*
X151161569Y-147179680D01*
X142488020Y-147072612D01*
X142476867Y-147072562D01*
X133802707Y-147101745D01*
X133791556Y-147101870D01*
X125118923Y-147267298D01*
X125107775Y-147267598D01*
X116438811Y-147569229D01*
X116428125Y-147569686D01*
X116427668Y-147569705D01*
X107764518Y-148007464D01*
X107764512Y-148007464D01*
X107753379Y-148008114D01*
X99098167Y-148581895D01*
X99087045Y-148582720D01*
X90710000Y-149270373D01*
X90710000Y-116200000D01*
X101552560Y-116200000D01*
X101552560Y-117800000D01*
X101601843Y-118047765D01*
X101742191Y-118257809D01*
X101952235Y-118398157D01*
X102200000Y-118447440D01*
X103800000Y-118447440D01*
X104047765Y-118398157D01*
X104257809Y-118257809D01*
X104398157Y-118047765D01*
X104447440Y-117800000D01*
X104447440Y-116200000D01*
X104398157Y-115952235D01*
X104257809Y-115742191D01*
X104047765Y-115601843D01*
X103800000Y-115552560D01*
X102200000Y-115552560D01*
X101952235Y-115601843D01*
X101742191Y-115742191D01*
X101601843Y-115952235D01*
X101552560Y-116200000D01*
X90710000Y-116200000D01*
X90710000Y-114468000D01*
X174050560Y-114468000D01*
X174050560Y-115992000D01*
X174099843Y-116239765D01*
X174240191Y-116449809D01*
X174450235Y-116590157D01*
X174628690Y-116625653D01*
X174275680Y-116978663D01*
X174063000Y-117492119D01*
X174063000Y-118047881D01*
X174275680Y-118561337D01*
X174668663Y-118954320D01*
X175182119Y-119167000D01*
X175737881Y-119167000D01*
X176251337Y-118954320D01*
X176644320Y-118561337D01*
X176730000Y-118354487D01*
X176815680Y-118561337D01*
X177208663Y-118954320D01*
X177722119Y-119167000D01*
X178277881Y-119167000D01*
X178791337Y-118954320D01*
X178995444Y-118750213D01*
X179739392Y-118750213D01*
X179808857Y-118992397D01*
X180332302Y-119179144D01*
X180887368Y-119151362D01*
X181271143Y-118992397D01*
X181340608Y-118750213D01*
X180540000Y-117949605D01*
X179739392Y-118750213D01*
X178995444Y-118750213D01*
X179184320Y-118561337D01*
X179263428Y-118370353D01*
X179317603Y-118501143D01*
X179559787Y-118570608D01*
X180360395Y-117770000D01*
X180719605Y-117770000D01*
X181520213Y-118570608D01*
X181762397Y-118501143D01*
X181949144Y-117977698D01*
X181921362Y-117422632D01*
X181762397Y-117038857D01*
X181520213Y-116969392D01*
X180719605Y-117770000D01*
X180360395Y-117770000D01*
X179559787Y-116969392D01*
X179317603Y-117038857D01*
X179267465Y-117179393D01*
X179184320Y-116978663D01*
X178791337Y-116585680D01*
X178584487Y-116500000D01*
X178791337Y-116414320D01*
X179184320Y-116021337D01*
X179270000Y-115814487D01*
X179355680Y-116021337D01*
X179748663Y-116414320D01*
X179939647Y-116493428D01*
X179808857Y-116547603D01*
X179739392Y-116789787D01*
X180540000Y-117590395D01*
X181340608Y-116789787D01*
X181271143Y-116547603D01*
X181130607Y-116497465D01*
X181331337Y-116414320D01*
X181724320Y-116021337D01*
X181937000Y-115507881D01*
X181937000Y-114952119D01*
X181724320Y-114438663D01*
X181331337Y-114045680D01*
X180817881Y-113833000D01*
X180262119Y-113833000D01*
X179748663Y-114045680D01*
X179355680Y-114438663D01*
X179270000Y-114645513D01*
X179184320Y-114438663D01*
X178791337Y-114045680D01*
X178277881Y-113833000D01*
X177722119Y-113833000D01*
X177208663Y-114045680D01*
X176855653Y-114398690D01*
X176820157Y-114220235D01*
X176679809Y-114010191D01*
X176469765Y-113869843D01*
X176222000Y-113820560D01*
X174698000Y-113820560D01*
X174450235Y-113869843D01*
X174240191Y-114010191D01*
X174099843Y-114220235D01*
X174050560Y-114468000D01*
X90710000Y-114468000D01*
X90710000Y-111507745D01*
X102171861Y-111507745D01*
X102245995Y-111753864D01*
X102783223Y-111946965D01*
X103353454Y-111919778D01*
X103677025Y-111785750D01*
X174115000Y-111785750D01*
X174115000Y-112126310D01*
X174211673Y-112359699D01*
X174390302Y-112538327D01*
X174623691Y-112635000D01*
X175714250Y-112635000D01*
X175873000Y-112476250D01*
X175873000Y-111627000D01*
X176127000Y-111627000D01*
X176127000Y-112476250D01*
X176285750Y-112635000D01*
X177376309Y-112635000D01*
X177609698Y-112538327D01*
X177788327Y-112359699D01*
X177885000Y-112126310D01*
X177885000Y-111785750D01*
X178115000Y-111785750D01*
X178115000Y-112126310D01*
X178211673Y-112359699D01*
X178390302Y-112538327D01*
X178623691Y-112635000D01*
X179714250Y-112635000D01*
X179873000Y-112476250D01*
X179873000Y-111627000D01*
X180127000Y-111627000D01*
X180127000Y-112476250D01*
X180285750Y-112635000D01*
X181376309Y-112635000D01*
X181609698Y-112538327D01*
X181788327Y-112359699D01*
X181885000Y-112126310D01*
X181885000Y-111785750D01*
X181726250Y-111627000D01*
X180127000Y-111627000D01*
X179873000Y-111627000D01*
X178273750Y-111627000D01*
X178115000Y-111785750D01*
X177885000Y-111785750D01*
X177726250Y-111627000D01*
X176127000Y-111627000D01*
X175873000Y-111627000D01*
X174273750Y-111627000D01*
X174115000Y-111785750D01*
X103677025Y-111785750D01*
X103754005Y-111753864D01*
X103828139Y-111507745D01*
X103000000Y-110679605D01*
X102171861Y-111507745D01*
X90710000Y-111507745D01*
X90710000Y-110283223D01*
X101553035Y-110283223D01*
X101580222Y-110853454D01*
X101746136Y-111254005D01*
X101992255Y-111328139D01*
X102820395Y-110500000D01*
X103179605Y-110500000D01*
X104007745Y-111328139D01*
X104253864Y-111254005D01*
X104390564Y-110873690D01*
X174115000Y-110873690D01*
X174115000Y-111214250D01*
X174273750Y-111373000D01*
X175873000Y-111373000D01*
X175873000Y-110523750D01*
X176127000Y-110523750D01*
X176127000Y-111373000D01*
X177726250Y-111373000D01*
X177885000Y-111214250D01*
X177885000Y-110873690D01*
X178115000Y-110873690D01*
X178115000Y-111214250D01*
X178273750Y-111373000D01*
X179873000Y-111373000D01*
X179873000Y-110523750D01*
X180127000Y-110523750D01*
X180127000Y-111373000D01*
X181726250Y-111373000D01*
X181885000Y-111214250D01*
X181885000Y-110873690D01*
X181788327Y-110640301D01*
X181609698Y-110461673D01*
X181376309Y-110365000D01*
X180285750Y-110365000D01*
X180127000Y-110523750D01*
X179873000Y-110523750D01*
X179714250Y-110365000D01*
X178623691Y-110365000D01*
X178390302Y-110461673D01*
X178211673Y-110640301D01*
X178115000Y-110873690D01*
X177885000Y-110873690D01*
X177788327Y-110640301D01*
X177609698Y-110461673D01*
X177376309Y-110365000D01*
X176285750Y-110365000D01*
X176127000Y-110523750D01*
X175873000Y-110523750D01*
X175714250Y-110365000D01*
X174623691Y-110365000D01*
X174390302Y-110461673D01*
X174211673Y-110640301D01*
X174115000Y-110873690D01*
X104390564Y-110873690D01*
X104446965Y-110716777D01*
X104419778Y-110146546D01*
X104253864Y-109745995D01*
X104007745Y-109671861D01*
X103179605Y-110500000D01*
X102820395Y-110500000D01*
X101992255Y-109671861D01*
X101746136Y-109745995D01*
X101553035Y-110283223D01*
X90710000Y-110283223D01*
X90710000Y-109492255D01*
X102171861Y-109492255D01*
X103000000Y-110320395D01*
X103828139Y-109492255D01*
X103754005Y-109246136D01*
X103216777Y-109053035D01*
X102646546Y-109080222D01*
X102245995Y-109246136D01*
X102171861Y-109492255D01*
X90710000Y-109492255D01*
X90710000Y-108000000D01*
X174102560Y-108000000D01*
X174102560Y-109000000D01*
X174151843Y-109247765D01*
X174292191Y-109457809D01*
X174502235Y-109598157D01*
X174750000Y-109647440D01*
X177250000Y-109647440D01*
X177497765Y-109598157D01*
X177707809Y-109457809D01*
X177839982Y-109260000D01*
X178160018Y-109260000D01*
X178292191Y-109457809D01*
X178502235Y-109598157D01*
X178750000Y-109647440D01*
X181250000Y-109647440D01*
X181497765Y-109598157D01*
X181707809Y-109457809D01*
X181848157Y-109247765D01*
X181897440Y-109000000D01*
X181897440Y-108000000D01*
X181848157Y-107752235D01*
X181707809Y-107542191D01*
X181497765Y-107401843D01*
X181250000Y-107352560D01*
X178750000Y-107352560D01*
X178502235Y-107401843D01*
X178292191Y-107542191D01*
X178160018Y-107740000D01*
X177839982Y-107740000D01*
X177707809Y-107542191D01*
X177497765Y-107401843D01*
X177250000Y-107352560D01*
X174750000Y-107352560D01*
X174502235Y-107401843D01*
X174292191Y-107542191D01*
X174151843Y-107752235D01*
X174102560Y-108000000D01*
X90710000Y-108000000D01*
X90710000Y-101785750D01*
X174115000Y-101785750D01*
X174115000Y-102126310D01*
X174211673Y-102359699D01*
X174390302Y-102538327D01*
X174623691Y-102635000D01*
X175714250Y-102635000D01*
X175873000Y-102476250D01*
X175873000Y-101627000D01*
X176127000Y-101627000D01*
X176127000Y-102476250D01*
X176285750Y-102635000D01*
X177376309Y-102635000D01*
X177609698Y-102538327D01*
X177788327Y-102359699D01*
X177885000Y-102126310D01*
X177885000Y-101785750D01*
X178115000Y-101785750D01*
X178115000Y-102126310D01*
X178211673Y-102359699D01*
X178390302Y-102538327D01*
X178623691Y-102635000D01*
X179714250Y-102635000D01*
X179873000Y-102476250D01*
X179873000Y-101627000D01*
X180127000Y-101627000D01*
X180127000Y-102476250D01*
X180285750Y-102635000D01*
X181376309Y-102635000D01*
X181609698Y-102538327D01*
X181788327Y-102359699D01*
X181885000Y-102126310D01*
X181885000Y-101785750D01*
X181726250Y-101627000D01*
X180127000Y-101627000D01*
X179873000Y-101627000D01*
X178273750Y-101627000D01*
X178115000Y-101785750D01*
X177885000Y-101785750D01*
X177726250Y-101627000D01*
X176127000Y-101627000D01*
X175873000Y-101627000D01*
X174273750Y-101627000D01*
X174115000Y-101785750D01*
X90710000Y-101785750D01*
X90710000Y-100873690D01*
X174115000Y-100873690D01*
X174115000Y-101214250D01*
X174273750Y-101373000D01*
X175873000Y-101373000D01*
X175873000Y-100523750D01*
X176127000Y-100523750D01*
X176127000Y-101373000D01*
X177726250Y-101373000D01*
X177885000Y-101214250D01*
X177885000Y-100873690D01*
X178115000Y-100873690D01*
X178115000Y-101214250D01*
X178273750Y-101373000D01*
X179873000Y-101373000D01*
X179873000Y-100523750D01*
X180127000Y-100523750D01*
X180127000Y-101373000D01*
X181726250Y-101373000D01*
X181885000Y-101214250D01*
X181885000Y-100873690D01*
X181788327Y-100640301D01*
X181609698Y-100461673D01*
X181376309Y-100365000D01*
X180285750Y-100365000D01*
X180127000Y-100523750D01*
X179873000Y-100523750D01*
X179714250Y-100365000D01*
X178623691Y-100365000D01*
X178390302Y-100461673D01*
X178211673Y-100640301D01*
X178115000Y-100873690D01*
X177885000Y-100873690D01*
X177788327Y-100640301D01*
X177609698Y-100461673D01*
X177376309Y-100365000D01*
X176285750Y-100365000D01*
X176127000Y-100523750D01*
X175873000Y-100523750D01*
X175714250Y-100365000D01*
X174623691Y-100365000D01*
X174390302Y-100461673D01*
X174211673Y-100640301D01*
X174115000Y-100873690D01*
X90710000Y-100873690D01*
X90710000Y-98000000D01*
X174102560Y-98000000D01*
X174102560Y-99000000D01*
X174151843Y-99247765D01*
X174292191Y-99457809D01*
X174502235Y-99598157D01*
X174750000Y-99647440D01*
X177250000Y-99647440D01*
X177497765Y-99598157D01*
X177707809Y-99457809D01*
X177839982Y-99260000D01*
X178160018Y-99260000D01*
X178292191Y-99457809D01*
X178502235Y-99598157D01*
X178750000Y-99647440D01*
X181250000Y-99647440D01*
X181497765Y-99598157D01*
X181707809Y-99457809D01*
X181848157Y-99247765D01*
X181897440Y-99000000D01*
X181897440Y-98000000D01*
X181848157Y-97752235D01*
X181707809Y-97542191D01*
X181497765Y-97401843D01*
X181250000Y-97352560D01*
X178750000Y-97352560D01*
X178502235Y-97401843D01*
X178292191Y-97542191D01*
X178160018Y-97740000D01*
X177839982Y-97740000D01*
X177707809Y-97542191D01*
X177497765Y-97401843D01*
X177250000Y-97352560D01*
X174750000Y-97352560D01*
X174502235Y-97401843D01*
X174292191Y-97542191D01*
X174151843Y-97752235D01*
X174102560Y-98000000D01*
X90710000Y-98000000D01*
X90710000Y-91785750D01*
X174115000Y-91785750D01*
X174115000Y-92126310D01*
X174211673Y-92359699D01*
X174390302Y-92538327D01*
X174623691Y-92635000D01*
X175714250Y-92635000D01*
X175873000Y-92476250D01*
X175873000Y-91627000D01*
X176127000Y-91627000D01*
X176127000Y-92476250D01*
X176285750Y-92635000D01*
X177376309Y-92635000D01*
X177609698Y-92538327D01*
X177788327Y-92359699D01*
X177885000Y-92126310D01*
X177885000Y-91785750D01*
X178115000Y-91785750D01*
X178115000Y-92126310D01*
X178211673Y-92359699D01*
X178390302Y-92538327D01*
X178623691Y-92635000D01*
X179714250Y-92635000D01*
X179873000Y-92476250D01*
X179873000Y-91627000D01*
X180127000Y-91627000D01*
X180127000Y-92476250D01*
X180285750Y-92635000D01*
X181376309Y-92635000D01*
X181609698Y-92538327D01*
X181788327Y-92359699D01*
X181885000Y-92126310D01*
X181885000Y-91785750D01*
X181726250Y-91627000D01*
X180127000Y-91627000D01*
X179873000Y-91627000D01*
X178273750Y-91627000D01*
X178115000Y-91785750D01*
X177885000Y-91785750D01*
X177726250Y-91627000D01*
X176127000Y-91627000D01*
X175873000Y-91627000D01*
X174273750Y-91627000D01*
X174115000Y-91785750D01*
X90710000Y-91785750D01*
X90710000Y-90873690D01*
X174115000Y-90873690D01*
X174115000Y-91214250D01*
X174273750Y-91373000D01*
X175873000Y-91373000D01*
X175873000Y-90523750D01*
X176127000Y-90523750D01*
X176127000Y-91373000D01*
X177726250Y-91373000D01*
X177885000Y-91214250D01*
X177885000Y-90873690D01*
X178115000Y-90873690D01*
X178115000Y-91214250D01*
X178273750Y-91373000D01*
X179873000Y-91373000D01*
X179873000Y-90523750D01*
X180127000Y-90523750D01*
X180127000Y-91373000D01*
X181726250Y-91373000D01*
X181885000Y-91214250D01*
X181885000Y-90873690D01*
X181788327Y-90640301D01*
X181609698Y-90461673D01*
X181376309Y-90365000D01*
X180285750Y-90365000D01*
X180127000Y-90523750D01*
X179873000Y-90523750D01*
X179714250Y-90365000D01*
X178623691Y-90365000D01*
X178390302Y-90461673D01*
X178211673Y-90640301D01*
X178115000Y-90873690D01*
X177885000Y-90873690D01*
X177788327Y-90640301D01*
X177609698Y-90461673D01*
X177376309Y-90365000D01*
X176285750Y-90365000D01*
X176127000Y-90523750D01*
X175873000Y-90523750D01*
X175714250Y-90365000D01*
X174623691Y-90365000D01*
X174390302Y-90461673D01*
X174211673Y-90640301D01*
X174115000Y-90873690D01*
X90710000Y-90873690D01*
X90710000Y-88000000D01*
X174102560Y-88000000D01*
X174102560Y-89000000D01*
X174151843Y-89247765D01*
X174292191Y-89457809D01*
X174502235Y-89598157D01*
X174750000Y-89647440D01*
X177250000Y-89647440D01*
X177497765Y-89598157D01*
X177707809Y-89457809D01*
X177839982Y-89260000D01*
X178160018Y-89260000D01*
X178292191Y-89457809D01*
X178502235Y-89598157D01*
X178750000Y-89647440D01*
X181250000Y-89647440D01*
X181497765Y-89598157D01*
X181707809Y-89457809D01*
X181848157Y-89247765D01*
X181897440Y-89000000D01*
X181897440Y-88000000D01*
X181848157Y-87752235D01*
X181707809Y-87542191D01*
X181497765Y-87401843D01*
X181250000Y-87352560D01*
X178750000Y-87352560D01*
X178502235Y-87401843D01*
X178292191Y-87542191D01*
X178160018Y-87740000D01*
X177839982Y-87740000D01*
X177707809Y-87542191D01*
X177497765Y-87401843D01*
X177250000Y-87352560D01*
X174750000Y-87352560D01*
X174502235Y-87401843D01*
X174292191Y-87542191D01*
X174151843Y-87752235D01*
X174102560Y-88000000D01*
X90710000Y-88000000D01*
X90710000Y-83785750D01*
X175265000Y-83785750D01*
X175265000Y-84426309D01*
X175361673Y-84659698D01*
X175540301Y-84838327D01*
X175773690Y-84935000D01*
X176114250Y-84935000D01*
X176273000Y-84776250D01*
X176273000Y-83627000D01*
X176527000Y-83627000D01*
X176527000Y-84776250D01*
X176685750Y-84935000D01*
X177026310Y-84935000D01*
X177259699Y-84838327D01*
X177438327Y-84659698D01*
X177535000Y-84426309D01*
X177535000Y-83785750D01*
X177376250Y-83627000D01*
X176527000Y-83627000D01*
X176273000Y-83627000D01*
X175423750Y-83627000D01*
X175265000Y-83785750D01*
X90710000Y-83785750D01*
X90710000Y-82573691D01*
X175265000Y-82573691D01*
X175265000Y-83214250D01*
X175423750Y-83373000D01*
X176273000Y-83373000D01*
X176273000Y-82223750D01*
X176527000Y-82223750D01*
X176527000Y-83373000D01*
X177376250Y-83373000D01*
X177535000Y-83214250D01*
X177535000Y-82700000D01*
X178452560Y-82700000D01*
X178452560Y-84300000D01*
X178501843Y-84547765D01*
X178642191Y-84757809D01*
X178852235Y-84898157D01*
X179100000Y-84947440D01*
X180100000Y-84947440D01*
X180347765Y-84898157D01*
X180557809Y-84757809D01*
X180698157Y-84547765D01*
X180747440Y-84300000D01*
X180747440Y-82700000D01*
X180698157Y-82452235D01*
X180557809Y-82242191D01*
X180347765Y-82101843D01*
X180100000Y-82052560D01*
X179100000Y-82052560D01*
X178852235Y-82101843D01*
X178642191Y-82242191D01*
X178501843Y-82452235D01*
X178452560Y-82700000D01*
X177535000Y-82700000D01*
X177535000Y-82573691D01*
X177438327Y-82340302D01*
X177259699Y-82161673D01*
X177026310Y-82065000D01*
X176685750Y-82065000D01*
X176527000Y-82223750D01*
X176273000Y-82223750D01*
X176114250Y-82065000D01*
X175773690Y-82065000D01*
X175540301Y-82161673D01*
X175361673Y-82340302D01*
X175265000Y-82573691D01*
X90710000Y-82573691D01*
X90710000Y-77700000D01*
X175252560Y-77700000D01*
X175252560Y-79300000D01*
X175301843Y-79547765D01*
X175442191Y-79757809D01*
X175652235Y-79898157D01*
X175900000Y-79947440D01*
X176900000Y-79947440D01*
X177147765Y-79898157D01*
X177357809Y-79757809D01*
X177498157Y-79547765D01*
X177547440Y-79300000D01*
X177547440Y-77700000D01*
X178452560Y-77700000D01*
X178452560Y-79300000D01*
X178501843Y-79547765D01*
X178642191Y-79757809D01*
X178852235Y-79898157D01*
X179100000Y-79947440D01*
X180100000Y-79947440D01*
X180347765Y-79898157D01*
X180557809Y-79757809D01*
X180698157Y-79547765D01*
X180747440Y-79300000D01*
X180747440Y-77700000D01*
X180698157Y-77452235D01*
X180557809Y-77242191D01*
X180347765Y-77101843D01*
X180100000Y-77052560D01*
X179100000Y-77052560D01*
X178852235Y-77101843D01*
X178642191Y-77242191D01*
X178501843Y-77452235D01*
X178452560Y-77700000D01*
X177547440Y-77700000D01*
X177498157Y-77452235D01*
X177357809Y-77242191D01*
X177147765Y-77101843D01*
X176900000Y-77052560D01*
X175900000Y-77052560D01*
X175652235Y-77101843D01*
X175442191Y-77242191D01*
X175301843Y-77452235D01*
X175252560Y-77700000D01*
X90710000Y-77700000D01*
X90710000Y-50730846D01*
X94140642Y-51027972D01*
X94144659Y-51028288D01*
X94148582Y-51028615D01*
X102798292Y-51680088D01*
X102809419Y-51680838D01*
X111468296Y-52196368D01*
X111479433Y-52196943D01*
X111479439Y-52196943D01*
X120145339Y-52576401D01*
X120156484Y-52576802D01*
X128827281Y-52820095D01*
X128838210Y-52820316D01*
X128838431Y-52820320D01*
X137511980Y-52927388D01*
X137523133Y-52927438D01*
X146197293Y-52898255D01*
X146208445Y-52898130D01*
X154881077Y-52732702D01*
X154892225Y-52732402D01*
X163561189Y-52430772D01*
X163572331Y-52430296D01*
X172235482Y-51992536D01*
X172235488Y-51992536D01*
X172246621Y-51991886D01*
X180901833Y-51418105D01*
X180912955Y-51417280D01*
X189290001Y-50729627D01*
X189290000Y-149269154D01*
M02*
