%TF.GenerationSoftware,KiCad,Pcbnew,5.0.0*%
%TF.CreationDate,2018-09-20T16:03:51+02:00*%
%TF.ProjectId,adri,616472692E6B696361645F7063620000,rev?*%
%TF.SameCoordinates,Original*%
%TF.FileFunction,Soldermask,Bot*%
%TF.FilePolarity,Negative*%
%FSLAX46Y46*%
G04 Gerber Fmt 4.6, Leading zero omitted, Abs format (unit mm)*
G04 Created by KiCad (PCBNEW 5.0.0) date Thu Sep 20 16:03:51 2018*
%MOMM*%
%LPD*%
G01*
G04 APERTURE LIST*
%ADD10C,0.150000*%
%ADD11R,3.700000X4.600000*%
%ADD12C,2.000000*%
%ADD13R,2.000000X2.000000*%
%ADD14R,1.924000X1.924000*%
%ADD15C,1.924000*%
%ADD16R,1.600000X1.300000*%
%ADD17R,1.950000X1.000000*%
%ADD18R,2.900000X1.400000*%
G04 APERTURE END LIST*
D10*
X90500000Y-150000000D02*
G75*
G02X90000000Y-149500000I0J500000D01*
G01*
X190000000Y-149500000D02*
G75*
G02X189500000Y-150000000I-500000J0D01*
G01*
X189500000Y-50000000D02*
G75*
G02X190000000Y-50500000I0J-500000D01*
G01*
X90000000Y-50500000D02*
G75*
G02X90500000Y-50000000I500000J0D01*
G01*
X90500001Y-150000000D02*
G75*
G02X189500000Y-150000000I49499999J-550000000D01*
G01*
X189499999Y-50000000D02*
G75*
G02X90500000Y-50000000I-49500000J549999999D01*
G01*
X90000000Y-149500000D02*
X90000000Y-50500000D01*
X190000000Y-149500000D02*
X190000000Y-50500000D01*
D11*
X124500000Y-135000000D03*
X153500000Y-135000000D03*
D12*
X103000000Y-110500000D03*
D13*
X103000000Y-117000000D03*
D14*
X175460000Y-115230000D03*
D15*
X175460000Y-117770000D03*
X178000000Y-115230000D03*
X178000000Y-117770000D03*
X180540000Y-115230000D03*
X180540000Y-117770000D03*
D16*
X131300000Y-117080000D03*
X129100000Y-117080000D03*
D17*
X137300000Y-111095000D03*
X137300000Y-112365000D03*
X137300000Y-113635000D03*
X137300000Y-114905000D03*
X142700000Y-114905000D03*
X142700000Y-113635000D03*
X142700000Y-112365000D03*
X142700000Y-111095000D03*
D14*
X145960000Y-109420000D03*
D15*
X145960000Y-111960000D03*
X145960000Y-114500000D03*
X145960000Y-117040000D03*
X134040000Y-109460000D03*
X134040000Y-112000000D03*
X134040000Y-114540000D03*
D14*
X134040000Y-117080000D03*
D18*
X165000000Y-114000000D03*
X161000000Y-114000000D03*
X165000000Y-117000000D03*
X161000000Y-117000000D03*
M02*
